<svg version="1.1" id="Layer_1" xmlns="http://www.w3.org/2000/svg" xmlns:xlink="http://www.w3.org/1999/xlink" x="0px" y="0px"
	 width="100%" viewBox="0 0 1024 1024" enable-background="new 0 0 1024 1024" xml:space="preserve">
<path fill="#000000" opacity="1.000000" stroke="none" 
	d="
M171.157440,486.349396 
	C171.259491,549.977478 171.283997,613.143433 171.311096,676.309387 
	C171.314209,683.571533 171.320969,683.581177 178.720871,683.583374 
	C183.387329,683.584717 188.054123,683.509155 192.720123,683.546875 
	C196.954712,683.581116 198.834396,682.104858 198.773285,677.334229 
	C198.510681,656.837646 198.666260,636.335754 198.673187,615.835754 
	C198.677597,602.800415 203.721497,597.816101 216.931686,597.814819 
	C246.598343,597.811768 276.264984,597.824402 305.931641,597.815979 
	C312.685913,597.814087 312.700470,597.786743 312.703491,590.859314 
	C312.712372,570.526001 312.693359,550.192627 312.715454,529.859314 
	C312.728821,517.562500 317.666077,512.663208 330.021118,512.656555 
	C351.187775,512.645264 372.355652,512.777832 393.520142,512.565247 
	C398.125885,512.518982 399.679382,513.935547 399.423920,518.516724 
	C399.081085,524.664490 399.140137,530.853394 399.397858,537.009155 
	C399.565521,541.013733 397.952209,542.248901 394.147491,542.217102 
	C378.815186,542.088928 363.478790,542.304565 348.149506,542.052856 
	C343.508148,541.976685 342.229553,543.524902 342.234039,548.068787 
	C342.333252,648.235291 342.325195,748.401917 342.190338,848.568298 
	C342.183899,853.351257 343.512512,854.829712 348.368286,854.783813 
	C372.366058,854.556702 396.368652,854.550659 420.366058,854.800598 
	C425.328186,854.852295 426.983337,853.644043 426.923096,848.447998 
	C426.652679,825.117798 426.799377,801.782715 426.810669,778.449402 
	C426.815216,769.094543 426.832825,769.081970 436.445740,769.033447 
	C441.612152,769.007324 446.779114,769.065186 451.945343,769.023682 
	C455.018494,768.999023 456.380676,770.213806 456.372131,773.505310 
	C456.288239,805.838379 456.408051,838.172180 456.259857,870.504761 
	C456.219666,879.276184 450.596588,884.318115 441.335114,884.336670 
	C408.168640,884.403137 375.001923,884.361816 341.835297,884.363831 
	C287.335327,884.367126 232.835342,884.371521 178.335358,884.377869 
	C171.322937,884.378662 171.318741,884.385254 171.315292,891.546692 
	C171.312729,896.880005 171.417191,902.215576 171.289917,907.545715 
	C171.219803,910.481873 172.230927,911.945312 175.320587,911.721985 
	C176.978149,911.602173 178.652267,911.716614 180.318909,911.716614 
	C392.985504,911.715759 605.652100,911.714294 818.318665,911.711853 
	C827.345093,911.711731 827.347046,911.707397 827.346924,920.515015 
	C827.346863,926.015015 827.154236,931.523254 827.400146,937.012085 
	C827.570374,940.811523 825.932800,942.084412 822.413635,941.952881 
	C819.251404,941.834595 816.081238,941.927429 812.914612,941.927551 
	C598.248047,941.935059 383.581482,941.944580 168.914902,941.937927 
	C164.089325,941.937805 159.260651,942.138733 154.446869,941.376526 
	C146.305481,940.087402 141.770065,935.101440 141.698654,926.744690 
	C141.593262,914.412231 141.515396,902.075867 141.727722,889.746338 
	C141.799606,885.572021 140.362793,884.228333 136.255234,884.295105 
	C124.091820,884.492737 111.922691,884.424255 99.756561,884.344238 
	C89.830544,884.278931 84.673622,879.166626 84.663979,869.162109 
	C84.609375,812.495483 84.607002,755.828857 84.648315,699.162231 
	C84.655762,688.954041 89.855995,683.755676 100.047783,683.662964 
	C111.880119,683.555359 123.719406,683.433533 135.544983,683.736023 
	C140.404785,683.860352 141.761047,682.232971 141.750641,677.461487 
	C141.615646,615.628479 141.664093,553.795044 141.667236,491.961731 
	C141.667648,483.876617 141.670227,483.876556 149.945099,483.861694 
	C155.278412,483.852142 160.612274,483.796417 165.944763,483.858215 
	C167.861740,483.880402 170.073944,483.439362 171.157440,486.349396 
M312.729797,780.500000 
	C312.719543,731.533508 312.652252,682.566772 312.789948,633.600708 
	C312.803284,628.859070 311.486359,627.263489 306.611420,627.306152 
	C282.296631,627.518799 257.978424,627.475708 233.662704,627.320862 
	C229.574463,627.294800 228.209183,628.510803 228.215408,632.696594 
	C228.322586,704.813660 228.325989,776.930969 228.214142,849.048035 
	C228.207443,853.366272 229.388382,854.807800 233.844086,854.772705 
	C257.992645,854.582031 282.144989,854.556763 306.292603,854.804932 
	C311.248230,854.855896 312.910461,853.639404 312.846649,848.452698 
	C312.572083,826.138062 312.729309,803.818054 312.729797,780.500000 
M120.700592,854.683594 
	C144.518250,854.686584 168.337082,854.566040 192.152573,854.794373 
	C197.055984,854.841309 198.796143,853.649719 198.772308,848.432129 
	C198.575211,805.294678 198.582687,762.155640 198.765228,719.018066 
	C198.785736,714.172119 197.064209,713.215576 192.678818,713.247070 
	C168.529266,713.420715 144.377075,713.426086 120.227661,713.242554 
	C115.769936,713.208679 114.151054,714.332397 114.169395,719.076111 
	C114.336792,762.380371 114.321083,805.685669 114.194336,848.990173 
	C114.181908,853.239014 115.250175,855.378418 120.700592,854.683594 
z"/>
<path fill="#000000" opacity="1.000000" stroke="none" 
	d="
M746.649780,810.350708 
	C741.929016,805.617065 737.303223,801.273560 733.055969,796.586914 
	C730.649597,793.931519 728.760864,793.962891 725.809204,795.734497 
	C700.967102,810.644470 674.179138,820.331970 645.588135,824.968872 
	C622.189758,828.763733 598.820740,827.983459 575.514099,824.082581 
	C530.563232,816.559082 491.842346,796.684570 459.882446,764.295654 
	C427.195007,731.169373 407.585297,691.342407 400.499390,645.213501 
	C392.469604,592.939880 402.556427,544.228027 430.576294,499.874237 
	C465.194672,445.075439 514.802124,411.122559 579.203003,400.767303 
	C639.485474,391.074280 694.474487,405.372559 742.936462,442.141571 
	C786.350281,475.080536 812.928040,519.136414 823.287231,572.739868 
	C833.540710,625.796448 824.362183,675.612000 797.790100,722.419250 
	C793.536682,729.911743 793.406189,729.907532 799.716309,736.224060 
	C842.111267,778.661255 884.422668,821.182800 926.999451,863.436890 
	C939.632629,875.974243 944.374817,890.662109 940.031616,907.594666 
	C935.520691,925.181213 923.726440,936.475281 905.945068,940.479309 
	C891.408142,943.752747 877.739563,940.550659 866.970947,930.158508 
	C843.835693,907.832092 821.230347,884.955688 798.459961,862.252441 
	C781.232727,845.075867 764.085876,827.818604 746.649780,810.350708 
M804.707153,826.791992 
	C829.414246,851.576172 854.119141,876.362488 878.831482,901.141418 
	C881.888672,904.206970 884.827637,907.422180 888.612610,909.644775 
	C896.924011,914.525269 908.144714,910.670898 910.150574,901.830017 
	C911.566284,895.589844 909.193359,890.163391 904.606262,885.581482 
	C857.444702,838.473206 810.340515,791.307495 763.196777,744.181396 
	C756.475708,737.462891 755.798157,731.325134 761.099060,723.214417 
	C764.924561,717.361145 769.053101,711.679565 772.507202,705.614258 
	C791.526123,672.217224 798.891174,636.335571 796.072754,598.011780 
	C794.012451,569.997559 785.893555,543.979370 771.602478,520.100281 
	C729.427673,449.630157 651.036926,417.259338 572.573364,433.919250 
	C526.969971,443.602081 490.455902,468.127625 463.255402,505.860199 
	C433.163544,547.603638 422.682922,594.349487 430.723877,645.065308 
	C436.661041,682.512146 453.250671,714.870056 479.501526,742.202087 
	C510.642609,774.625916 548.662354,793.661316 593.393555,797.467896 
	C639.551758,801.395874 682.443726,791.086365 720.476868,763.503235 
	C729.563232,756.913452 735.516907,757.557922 743.420959,765.465881 
	C763.684570,785.739807 783.942749,806.019104 804.707153,826.791992 
z"/>
<path fill="#000000" opacity="1.000000" stroke="none" 
	d="
M493.000061,84.683655 
	C569.984924,84.672585 646.470032,84.742996 722.954285,84.523758 
	C730.484619,84.502174 735.776917,87.154846 740.864990,92.431831 
	C754.619141,106.696579 768.821411,120.528793 782.821960,134.556564 
	C796.353333,148.114456 809.863892,161.693115 823.362427,175.283722 
	C826.496582,178.439331 827.390320,182.360794 827.378113,186.719650 
	C827.310730,210.714691 827.347473,234.710052 827.347290,258.705292 
	C827.346802,327.025116 827.348694,395.344910 827.340393,463.664734 
	C827.339539,470.831543 827.310974,470.851044 820.121521,470.893066 
	C815.122742,470.922302 810.123474,470.907562 805.124573,470.878601 
	C797.891785,470.836761 797.754761,470.717834 797.744507,463.695007 
	C797.723145,449.031281 797.733948,434.367493 797.732910,419.703735 
	C797.727783,348.551147 797.724548,277.398560 797.715820,206.245987 
	C797.715027,199.437714 797.699463,199.428162 790.839722,199.425522 
	C769.843872,199.417419 748.847961,199.443558 727.852173,199.402695 
	C717.882202,199.383301 713.212524,195.663681 712.464905,185.697876 
	C711.731445,175.920349 712.062256,166.059601 712.013306,156.234940 
	C711.955261,144.570862 711.990479,132.906326 711.985168,121.241997 
	C711.981995,114.291046 711.981873,114.274048 705.125732,114.273254 
	C614.810242,114.262848 524.494812,114.251022 434.179352,114.252968 
	C349.029541,114.254799 263.879730,114.272011 178.729935,114.284050 
	C171.340225,114.285095 171.335327,114.290627 171.310593,121.746635 
	C171.292923,127.078857 171.153702,132.415710 171.331589,137.741699 
	C171.442429,141.059952 170.276123,142.788895 166.856522,142.789993 
	C159.858963,142.792252 152.861359,142.814178 145.863846,142.842133 
	C142.667435,142.854904 141.597290,141.234970 141.622330,138.127869 
	C141.729691,124.798042 141.576508,111.465881 141.717636,98.136681 
	C141.795471,90.785225 147.257309,85.239937 154.571915,84.744537 
	C157.227539,84.564674 159.901672,84.630615 162.567368,84.630966 
	C272.544922,84.645309 382.522491,84.664970 493.000061,84.683655 
M749.752563,170.060120 
	C758.103943,170.060120 766.455322,170.060120 775.326477,170.060120 
	C763.690674,158.594910 752.847412,147.910675 742.503052,137.717957 
	C742.503052,147.660019 742.503052,158.659531 742.503052,170.060196 
	C744.903931,170.060196 746.871155,170.060196 749.752563,170.060120 
z"/>
<path fill="#000000" opacity="1.000000" stroke="none" 
	d="
M414.957520,248.154663 
	C423.620239,269.396362 427.966827,291.227509 428.029297,313.668213 
	C428.114929,344.411255 420.062195,373.150909 404.380402,399.709015 
	C396.354126,413.301971 386.220428,425.180176 375.184967,436.334686 
	C366.420746,445.193481 356.775940,444.098724 350.439026,433.423035 
	C341.005127,417.529907 331.973328,401.396973 322.453522,385.556519 
	C318.330170,378.695526 318.528198,372.825104 323.219513,366.232452 
	C334.163452,350.852997 340.836578,333.853424 340.909607,314.648010 
	C341.050568,277.564026 319.342499,246.410126 284.489197,233.770096 
	C273.432739,229.760315 269.731415,224.555954 269.720184,212.938110 
	C269.703613,195.777832 269.673401,178.617508 269.708008,161.457306 
	C269.734344,148.412537 278.107788,142.009781 290.667053,144.864075 
	C325.879913,152.866699 356.282715,169.293869 381.191986,195.650223 
	C395.657227,210.955704 406.786377,228.363647 414.957520,248.154663 
M391.851074,272.543823 
	C377.905853,222.960556 334.026489,188.245987 300.074554,179.878922 
	C300.074554,187.807678 300.222046,195.559479 300.006348,203.301163 
	C299.912140,206.683212 301.255524,208.370163 304.248749,209.696106 
	C326.129944,219.389175 342.730316,235.018936 354.967590,255.424301 
	C365.950806,273.738586 371.067902,293.876068 370.905060,314.958252 
	C370.741730,336.107880 364.598907,355.947601 353.301331,374.027527 
	C352.454102,375.383362 350.992035,376.888275 351.883759,378.589172 
	C356.172089,386.768890 360.635986,394.854889 366.248962,403.340515 
	C377.167633,389.269043 385.535492,374.885010 390.815552,358.784576 
	C400.111908,330.437134 400.337036,301.930725 391.851074,272.543823 
z"/>
<path fill="#000000" opacity="1.000000" stroke="none" 
	d="
M262.815948,397.802155 
	C269.421448,398.029266 275.042175,395.644562 280.859039,394.311432 
	C289.055664,392.432953 295.488800,394.653412 299.712250,401.877472 
	C309.630432,418.842224 319.393768,435.900330 328.986328,453.051208 
	C332.733337,459.750610 328.896912,468.721985 321.081482,471.986450 
	C307.685516,477.581879 293.889984,481.508301 279.402863,483.576508 
	C254.515976,487.129333 230.190445,484.959717 206.347977,477.753418 
	C163.101624,464.682373 130.292297,438.192291 107.511436,399.220642 
	C95.559944,378.774933 89.134712,356.510620 85.998825,333.210541 
	C84.237190,320.121307 90.697853,312.754883 103.886086,312.668915 
	C120.880920,312.558105 137.877441,312.547516 154.872269,312.653137 
	C165.205353,312.717377 171.634064,317.527618 173.010483,327.626617 
	C178.245590,366.037170 214.204956,400.235748 259.842560,397.846893 
	C260.673767,397.803345 261.508362,397.825409 262.815948,397.802155 
M138.443787,393.088562 
	C175.350510,448.963928 246.867538,465.210144 291.398590,449.561188 
	C289.119263,442.922272 284.593170,437.414154 281.966675,431.046631 
	C279.922516,426.090912 276.980377,425.486053 272.285522,426.454651 
	C259.390930,429.115082 246.298126,428.614960 233.669846,425.646606 
	C193.057663,416.100616 164.563431,392.086365 149.500168,352.812958 
	C145.522827,342.443085 145.600021,342.330109 134.104996,342.446960 
	C128.713165,342.501770 123.243828,341.751587 117.614349,343.079407 
	C121.128174,361.281525 127.907005,377.572479 138.443787,393.088562 
z"/>
<path fill="#000000" opacity="1.000000" stroke="none" 
	d="
M134.033218,193.037186 
	C159.493332,166.945770 189.998840,151.019043 225.355850,144.202438 
	C233.129791,142.703690 242.116455,149.365311 242.217484,157.330261 
	C242.473160,177.486008 242.459808,197.648849 242.224991,217.805008 
	C242.150208,224.223526 238.464661,228.841309 232.335815,230.884995 
	C208.198181,238.933853 190.411087,254.176575 179.198990,277.076752 
	C176.457504,282.676086 171.890121,285.381042 165.531418,285.351410 
	C145.872543,285.259949 126.212860,285.352234 106.553680,285.301971 
	C96.466560,285.276184 89.151192,275.862610 91.701248,265.923523 
	C98.430161,239.697083 111.839706,217.146866 129.988693,197.265533 
	C131.223831,195.912521 132.522461,194.617493 134.033218,193.037186 
M176.360413,231.857239 
	C185.688705,222.668594 196.283005,215.220474 208.075485,209.609711 
	C211.670029,207.899460 213.056900,205.793793 212.784531,201.944611 
	C212.515106,198.136688 212.861557,194.288773 212.696777,190.468811 
	C212.543442,186.913910 213.475845,183.231125 211.928848,179.814636 
	C185.781113,181.658691 132.232162,229.265930 127.018333,255.688461 
	C135.724579,255.688461 144.308533,255.563431 152.885559,255.752945 
	C156.097214,255.823898 158.110291,254.743179 159.808167,252.029968 
	C164.324173,244.813278 169.700989,238.254501 176.360413,231.857239 
z"/>
<path fill="#000000" opacity="1.000000" stroke="none" 
	d="
M681.000000,283.920471 
	C708.983887,283.914734 736.468628,284.013336 763.950989,283.809143 
	C768.977112,283.771759 770.745483,285.284668 770.418579,290.373779 
	C770.002930,296.843475 770.232605,303.361115 770.345276,309.855286 
	C770.397339,312.853302 769.127014,314.151245 766.203186,314.041748 
	C765.039124,313.998138 763.871582,314.056335 762.705627,314.056152 
	C700.908508,314.047058 639.111389,314.037964 577.314270,314.024719 
	C569.659729,314.023102 569.656494,314.012512 569.651917,306.332397 
	C569.648621,300.835632 569.922058,295.321991 569.576111,289.847229 
	C569.282593,285.201477 571.042969,283.793762 575.561951,283.825317 
	C599.213623,283.990753 622.867004,283.912750 646.519836,283.917938 
	C657.846558,283.920441 669.173279,283.919891 681.000000,283.920471 
z"/>
<path fill="#000000" opacity="1.000000" stroke="none" 
	d="
M599.231140,351.045135 
	C599.225891,356.369690 599.045715,361.210938 599.273193,366.032959 
	C599.461426,370.020691 597.759521,371.293610 593.958374,371.215790 
	C585.629211,371.045227 577.294128,371.156860 568.961487,371.157410 
	C533.464355,371.159668 497.967194,371.169556 462.470032,371.161346 
	C455.630707,371.159760 455.631317,371.128082 455.622345,364.188721 
	C455.614380,358.022583 455.751770,351.851318 455.537354,345.692352 
	C455.420990,342.350464 456.352783,340.858795 459.962860,340.865326 
	C504.792419,340.946625 549.622192,340.942749 594.451904,340.902100 
	C597.769714,340.899109 599.502441,342.039276 599.259277,345.555206 
	C599.144592,347.213989 599.235107,348.886963 599.231140,351.045135 
z"/>
<path fill="#000000" opacity="1.000000" stroke="none" 
	d="
M571.000000,226.967041 
	C597.482605,226.969666 623.465271,226.961121 649.447876,226.982925 
	C656.007019,226.988434 656.203247,227.211182 656.225159,233.697388 
	C656.244873,239.526718 655.966370,245.370987 656.301636,251.180832 
	C656.564026,255.727386 654.567749,256.949005 650.457520,256.916107 
	C636.967529,256.808228 623.475952,256.902618 609.984985,256.902649 
	C580.005005,256.902771 550.025085,256.907135 520.045105,256.876801 
	C512.662109,256.869324 512.659668,256.811157 512.654480,249.461960 
	C512.650635,243.965637 512.923767,238.451996 512.572144,232.978287 
	C512.274597,228.347382 514.010437,226.855133 518.535461,226.899872 
	C535.855469,227.071167 553.178284,226.967896 571.000000,226.967041 
z"/>
<path fill="#000000" opacity="1.000000" stroke="none" 
	d="
M654.830811,356.000671 
	C654.832031,354.669891 654.819824,353.836731 654.836426,353.004181 
	C655.108704,339.360962 652.823608,341.066925 666.680176,340.952271 
	C680.338318,340.839203 694.000122,341.063934 707.656006,340.856079 
	C712.048401,340.789215 713.551147,342.322296 713.363281,346.663177 
	C713.075439,353.313995 713.174500,359.987946 713.310181,366.647949 
	C713.375000,369.827240 712.204590,371.158386 708.967224,371.145111 
	C692.310242,371.076782 675.652649,371.095337 658.995483,371.150665 
	C656.059021,371.160431 654.717346,369.989716 654.811584,366.991943 
	C654.921448,363.497437 654.833130,359.996674 654.830811,356.000671 
z"/>
<path fill="#000000" opacity="1.000000" stroke="none" 
	d="
M755.990356,256.909485 
	C743.351379,256.898529 731.209656,256.945251 719.068970,256.852997 
	C712.286743,256.801514 711.958557,256.375916 711.957153,249.826538 
	C711.955933,244.005447 712.069763,238.181931 711.934204,232.364120 
	C711.847534,228.645035 713.178223,226.888443 717.128723,226.914169 
	C733.260925,227.019241 749.394409,226.983078 765.527161,226.927795 
	C768.727661,226.916824 770.467651,227.846878 770.368042,231.491394 
	C770.177307,238.471497 770.204773,245.463318 770.370056,252.444870 
	C770.447449,255.712433 769.055725,256.980682 765.967896,256.929443 
	C762.808655,256.877045 759.648010,256.912262 755.990356,256.909485 
z"/>
<path fill="#000000" opacity="1.000000" stroke="none" 
	d="
M496.996460,314.063477 
	C484.523834,314.065491 472.548248,313.945007 460.577820,314.140625 
	C456.672241,314.204437 455.318604,313.007019 455.518097,309.000458 
	C455.848450,302.364746 455.739166,295.697723 455.568665,289.050232 
	C455.479004,285.554413 456.517578,283.839844 460.317505,283.865143 
	C476.447845,283.972412 492.579437,283.954437 508.710144,283.882721 
	C512.085327,283.867706 513.475708,285.149811 513.392090,288.609406 
	C513.223450,295.589966 513.231506,302.579681 513.383179,309.560913 
	C513.453918,312.817383 512.074219,314.085999 508.969635,314.041382 
	C505.145813,313.986420 501.320282,314.050995 496.996460,314.063477 
z"/>
<path fill="#000000" opacity="1.000000" stroke="none" 
	d="
M691.002380,475.921051 
	C732.797119,500.961914 758.502991,536.842041 767.432861,584.580383 
	C773.498596,617.007202 769.766785,648.271179 756.194946,678.215149 
	C742.144653,709.214844 720.081055,733.127014 690.438049,749.924744 
	C664.426941,764.664307 636.302795,771.773987 606.571716,770.093750 
	C550.414368,766.920227 506.928894,741.541077 477.382355,693.265869 
	C459.337250,663.782715 452.790039,631.299377 456.015472,597.402771 
	C460.141266,554.043945 479.436768,517.998291 513.474121,490.304535 
	C536.543884,471.534271 562.980835,460.428558 592.414551,456.730713 
	C627.179688,452.363129 660.007996,458.636749 691.002380,475.921051 
M704.998840,701.498474 
	C736.516174,667.520874 746.984985,627.637451 736.817322,582.755432 
	C724.657043,529.077637 677.696411,490.032837 624.776184,485.918579 
	C592.912109,483.441345 563.602722,490.175751 538.005554,509.214081 
	C496.991425,539.718994 479.743134,581.291992 486.653351,631.642822 
	C496.380157,702.516968 562.480591,752.253052 637.910828,738.072449 
	C663.796082,733.206177 686.077942,720.991821 704.998840,701.498474 
z"/>
<path fill="#000000" opacity="1.000000" stroke="none" 
	d="
M538.818237,624.763184 
	C534.757446,631.684875 530.723511,638.205811 527.076538,644.936401 
	C525.061768,648.654724 522.932922,648.981445 519.539734,646.808044 
	C514.074341,643.307312 508.475830,640.004761 502.834442,636.792542 
	C499.811401,635.071289 499.546173,633.239685 501.320587,630.322510 
	C514.908997,607.983398 528.313843,585.532532 541.936584,563.214661 
	C548.144958,553.043579 562.338196,553.650452 568.793396,564.345703 
	C580.495361,583.733948 592.097168,603.183960 603.546875,622.721802 
	C605.332153,625.768127 607.408691,626.784363 610.760132,626.758667 
	C625.921326,626.642517 641.084412,626.645569 656.245605,626.760376 
	C659.430176,626.784546 661.366150,625.769836 663.048340,622.925842 
	C673.983276,604.437927 685.103821,586.059570 696.197205,567.665649 
	C699.643372,561.951599 699.747375,561.977173 705.369995,565.366394 
	C710.360840,568.374756 715.229675,571.631165 720.418823,574.250183 
	C724.435303,576.277283 724.174500,578.382202 722.145203,581.688477 
	C712.563110,597.300476 703.119995,612.997803 693.649963,628.678284 
	C689.948975,634.806458 686.176697,640.897278 682.676453,647.139343 
	C679.347473,653.076111 674.392273,656.247681 667.694824,656.278870 
	C644.536194,656.386780 621.376465,656.405334 598.217834,656.300415 
	C591.158813,656.268494 585.981873,652.867859 582.435120,646.647095 
	C574.270264,632.326172 565.927002,618.106750 557.621155,603.866577 
	C556.806335,602.469666 556.405701,600.714966 554.028931,599.652039 
	C548.238647,607.351746 544.096863,616.204834 538.818237,624.763184 
z"/>
</svg>