<svg version="1.1" id="Layer_1" xmlns="http://www.w3.org/2000/svg" xmlns:xlink="http://www.w3.org/1999/xlink" x="0px" y="0px"
	 width="100%" viewBox="0 0 1080 1080" enable-background="new 0 0 1080 1080" xml:space="preserve">
<path fill="#FEFEFE" opacity="1.000000" stroke="none" 
	d="
M1.000000,390.000000 
	C1.000000,260.014954 1.000000,130.529892 1.000000,1.022415 
	C360.943512,1.022415 720.887024,1.022415 1080.915283,1.022415 
	C1080.915283,360.901947 1080.915283,720.803955 1080.915283,1080.853027 
	C721.000061,1080.853027 361.000031,1080.853027 1.000000,1080.853027 
	C1.000000,850.779236 1.000000,620.639587 1.000000,390.000000 
M137.923828,951.600952 
	C146.399277,958.383484 156.254852,960.534607 166.870682,960.532471 
	C323.028320,960.500488 479.185974,960.518982 635.343628,960.502991 
	C663.239014,960.500122 680.857056,942.827454 680.866028,914.931763 
	C680.878723,875.600708 680.872314,836.269592 680.862610,796.938538 
	C680.862183,795.108398 680.921326,793.253296 680.659363,791.452454 
	C679.474060,783.301819 673.401306,778.360840 665.408936,778.923828 
	C658.196838,779.431763 653.012573,785.237305 652.930420,793.171692 
	C652.830322,802.836792 652.896973,812.503662 652.896912,822.169739 
	C652.896667,853.501282 652.860168,884.832825 652.930969,916.164246 
	C652.946228,922.908691 650.828979,928.501404 644.376892,931.129639 
	C641.283569,932.389648 637.553040,932.437134 634.110901,932.438538 
	C487.952698,932.497498 341.794464,932.489197 195.636246,932.488892 
	C185.303513,932.488892 174.968826,932.609985 164.638626,932.447571 
	C155.174576,932.298767 149.954956,926.948669 149.653488,917.508118 
	C149.621597,916.509155 149.644058,915.508362 149.644058,914.508423 
	C149.644897,698.687561 149.645996,482.866760 149.647064,267.045929 
	C149.647079,265.284210 149.647064,263.522461 149.647064,261.510834 
	C152.159882,261.510834 153.977493,261.510834 155.795105,261.510803 
	C185.126740,261.510651 214.458374,261.519958 243.790009,261.505890 
	C256.357880,261.499847 261.343109,256.544708 261.349609,244.044342 
	C261.365051,214.379395 261.355072,184.714447 261.355377,155.049500 
	C261.355408,153.312485 261.355377,151.575470 261.355377,149.510818 
	C263.799774,149.510818 265.447937,149.510818 267.096069,149.510818 
	C389.588989,149.510818 512.081909,149.509720 634.574829,149.520370 
	C636.571045,149.520554 638.582031,149.536041 640.560608,149.764832 
	C646.474304,150.448685 650.339905,153.840225 651.972534,159.424316 
	C652.749329,162.081207 652.862854,165.003464 652.863708,167.805634 
	C652.903809,299.631317 652.898010,431.457001 652.901855,563.282715 
	C652.901978,565.615295 652.811340,567.960205 653.009033,570.278320 
	C653.916626,580.923828 665.711182,586.479004 674.553223,580.502197 
	C679.889099,576.895386 680.897949,571.577576 680.896423,565.640930 
	C680.862000,432.648621 680.762085,299.656158 680.964172,166.664154 
	C681.003052,141.088348 662.950195,121.309593 636.003174,121.366928 
	C507.511200,121.640312 379.018280,121.506981 250.525757,121.436340 
	C244.486435,121.433014 239.827469,123.283646 235.470200,127.666168 
	C200.927826,162.408783 166.330292,197.099808 131.392166,231.442947 
	C124.448586,238.268265 121.496269,245.312790 121.507957,255.136490 
	C121.751404,459.791046 121.688553,664.445923 121.695908,869.100769 
	C121.696526,886.265625 121.522873,903.435730 121.886024,920.593689 
	C122.150345,933.082397 127.528046,943.330750 137.923828,951.600952 
M960.317688,767.500549 
	C960.317688,567.846191 960.322815,368.191864 960.284058,168.537521 
	C960.283203,164.222000 960.218018,159.824921 959.433350,155.605225 
	C956.013428,137.211731 940.283386,121.304169 915.933777,121.396423 
	C852.438477,121.636986 788.941650,121.474762 725.445435,121.489418 
	C723.784119,121.489807 722.107483,121.567314 720.464355,121.797646 
	C715.158264,122.541496 710.353882,126.682564 709.238708,131.834412 
	C708.027649,137.429443 708.954834,143.022049 713.969421,146.048294 
	C717.557617,148.213684 722.315857,149.369659 726.557251,149.383438 
	C789.219543,149.587173 851.882751,149.494080 914.545471,149.602890 
	C918.096130,149.609055 921.991272,150.025299 925.123047,151.516815 
	C931.815125,154.704010 932.378906,161.100098 932.377136,167.736801 
	C932.326294,359.891968 932.335876,552.047119 932.335754,744.202332 
	C932.335754,801.198914 932.320618,858.195496 932.363159,915.192078 
	C932.366699,919.975037 931.974976,924.524719 928.443481,928.185303 
	C924.770203,931.992798 920.100525,932.510010 915.122742,932.506226 
	C852.626465,932.459351 790.130249,932.472900 727.633972,932.487793 
	C725.305603,932.488342 722.709534,932.037476 720.708801,932.894897 
	C717.340149,934.338623 713.697021,936.089417 711.351318,938.752258 
	C707.764221,942.824463 707.944763,948.076721 710.346069,952.852966 
	C713.186035,958.501953 718.188660,960.550720 724.368774,960.546692 
	C788.698242,960.504639 853.028381,960.643433 917.356323,960.326965 
	C923.793457,960.295288 930.739258,958.690552 936.548401,955.924500 
	C953.066711,948.059021 960.386536,934.168640 960.350403,915.991699 
	C960.252686,866.828125 960.317444,817.664307 960.317688,767.500549 
M736.791809,772.500122 
	C736.794678,788.330322 736.715088,804.161072 736.835205,819.990417 
	C736.895081,827.881592 741.585083,833.931702 748.739807,834.126465 
	C763.882019,834.538452 779.045227,834.350464 794.196594,834.153748 
	C799.273499,834.087891 802.818970,831.102234 805.064148,826.579346 
	C809.862427,816.913086 814.659241,807.246033 819.494995,797.598450 
	C837.723816,761.230896 855.941772,724.857910 874.239380,688.525024 
	C876.555054,683.926758 877.327637,679.386414 874.984253,674.689880 
	C852.078430,628.782776 829.072388,582.925476 806.278076,536.963196 
	C802.821411,529.993286 797.842224,526.793213 790.106689,526.936340 
	C777.779602,527.164368 765.445251,526.984802 753.113953,527.000916 
	C742.178711,527.015198 736.825562,532.250854 736.804138,543.089783 
	C736.762939,563.919556 736.793091,584.749451 736.793701,605.579285 
	C736.793762,607.331604 736.793701,609.083923 736.793701,610.997253 
	C734.259338,610.997253 732.430725,610.997314 730.602112,610.997314 
	C672.945129,610.997314 615.288086,610.993469 557.631104,611.000854 
	C547.478943,611.002136 541.097168,616.407776 540.985352,624.841309 
	C540.891174,631.945679 547.317383,639.058533 557.411926,639.006287 
	C620.899597,638.677551 684.390808,638.656189 747.878235,639.009338 
	C759.290527,639.072754 764.970520,631.718750 764.834473,622.237427 
	C764.557129,602.911377 764.752197,583.578491 764.752563,564.248413 
	C764.752625,561.295959 764.752563,558.343567 764.752563,555.002747 
	C769.943848,555.002747 774.756104,555.235535 779.532654,554.922546 
	C782.827637,554.706665 784.500793,555.789001 785.982483,558.787659 
	C803.782104,594.812134 821.360291,630.955811 839.891174,666.603210 
	C845.090393,676.604675 845.784241,684.255371 840.269409,694.655762 
	C821.294800,730.439758 803.623413,766.914490 785.384094,803.089966 
	C784.719482,804.408203 783.357910,806.249573 782.233215,806.314087 
	C776.507141,806.642517 770.752136,806.465637 764.751709,806.465637 
	C764.751709,783.967346 764.546204,762.156250 764.846069,740.352112 
	C764.978516,730.722717 760.364502,722.596924 747.198547,722.670654 
	C684.211121,723.023499 621.220581,722.828430 558.231140,722.831116 
	C556.898438,722.831177 555.562927,722.818481 554.233459,722.894409 
	C547.803528,723.261292 542.474426,727.825989 541.205200,734.019714 
	C539.994873,739.925415 542.928101,746.388550 548.694336,748.917664 
	C551.622253,750.201965 555.096313,750.756958 558.325134,750.762939 
	C615.815308,750.868958 673.305786,750.839844 730.796143,750.839844 
	C732.711426,750.839844 734.626648,750.839844 736.792419,750.839844 
	C736.792419,758.212708 736.792419,764.856445 736.791809,772.500122 
M403.499969,415.119476 
	C463.149323,415.118622 522.798706,415.101471 582.448059,415.141418 
	C588.583496,415.145538 593.074097,412.532867 595.580017,407.071259 
	C598.077087,401.628967 597.300598,396.399658 593.260437,391.804535 
	C589.738037,387.798218 585.089844,387.120239 580.096069,387.125488 
	C543.106812,387.164551 506.117523,387.148834 469.128235,387.146240 
	C385.985931,387.140411 302.843597,387.132568 219.701279,387.124420 
	C212.458099,387.123718 205.916809,392.973053 205.586517,399.755219 
	C205.184540,408.009125 210.150528,414.099243 218.064987,414.952179 
	C219.878876,415.147705 221.722122,415.113098 223.551849,415.113342 
	C283.201202,415.120728 342.850586,415.119476 403.499969,415.119476 
M310.500000,471.060852 
	C401.128845,471.060394 491.757690,471.066925 582.386536,471.048065 
	C591.050415,471.046265 596.605164,465.540619 596.954163,456.813416 
	C597.225769,450.019684 591.358276,443.945404 583.712341,443.188568 
	C582.061218,443.025146 580.385376,443.086609 578.720886,443.086548 
	C462.102905,443.082611 345.484924,443.083435 228.866928,443.080841 
	C225.535721,443.080780 222.198364,442.910492 218.874557,443.058807 
	C210.945160,443.412689 205.131134,450.217896 205.871765,458.113159 
	C206.684799,466.780182 211.757919,471.037659 221.536743,471.048828 
	C250.857788,471.082306 280.178894,471.060852 310.500000,471.060852 
M223.620422,499.000366 
	C220.993286,499.185730 218.230164,498.911865 215.764313,499.641937 
	C208.105438,501.909607 204.557541,508.174255 205.921616,516.276062 
	C207.001724,522.691162 213.056183,526.994568 221.288177,526.995605 
	C341.731049,527.011230 462.173889,527.011292 582.616760,526.991028 
	C590.845947,526.989624 596.530518,521.316650 596.950195,512.924744 
	C597.293762,506.054901 591.541077,499.940735 583.909973,499.164673 
	C582.094604,498.980072 580.251343,499.038055 578.420898,499.037842 
	C460.476959,499.023224 342.533051,499.014099 223.620422,499.000366 
M581.180176,331.222717 
	C470.239319,331.212616 359.298370,331.148987 248.358170,331.412323 
	C244.428696,331.421692 239.795410,333.878265 236.752991,336.603851 
	C232.488068,340.424652 232.395706,346.008270 234.812546,351.221924 
	C237.297668,356.582947 241.795029,359.122253 247.612213,359.160278 
	C259.272156,359.236542 270.932922,359.190918 282.593353,359.191010 
	C381.707336,359.191620 480.821320,359.203369 579.935242,359.134521 
	C583.020508,359.132385 586.377014,358.916046 589.133362,357.713684 
	C594.795776,355.243652 598.229553,348.563812 596.895874,342.868286 
	C595.422607,336.576660 590.571594,331.135162 581.180176,331.222717 
M430.499695,876.491699 
	C457.650970,876.491699 484.802277,876.525391 511.953461,876.474243 
	C522.102478,876.455139 532.250977,876.229919 542.399963,876.114807 
	C547.902954,876.052368 551.489990,872.937439 553.633423,868.341064 
	C555.963745,863.343933 555.490967,858.399780 551.926941,853.862305 
	C548.325806,849.277527 543.459473,848.548828 538.090332,848.550781 
	C432.816498,848.589417 327.542633,848.577881 222.268784,848.590881 
	C220.441528,848.591125 218.590378,848.610779 216.791321,848.887512 
	C209.978546,849.935303 205.172043,856.263245 205.843460,863.155334 
	C206.728683,872.242065 211.710541,876.484619 221.617142,876.486023 
	C290.911316,876.495605 360.205505,876.491516 430.499695,876.491699 
M299.107544,793.123169 
	C290.559296,797.524170 287.176788,804.377502 290.259155,811.597412 
	C293.078033,818.200134 298.404968,820.721313 305.435425,820.689758 
	C328.591858,820.585632 351.749115,820.648499 374.906036,820.650208 
	C443.877014,820.655457 512.848022,820.662781 581.818970,820.667053 
	C588.806885,820.667480 594.506470,816.757935 596.256714,810.783020 
	C598.110535,804.454407 596.024841,797.834412 590.293335,794.907349 
	C587.212646,793.334167 583.308838,792.778076 579.775146,792.773804 
	C488.646942,792.663391 397.518524,792.684387 306.390167,792.698303 
	C304.228668,792.698669 302.067169,792.878723 299.107544,793.123169 
M385.500000,582.966858 
	C413.991608,582.968506 442.483307,583.006714 470.974792,582.948059 
	C478.898010,582.931763 484.542999,577.232239 485.024567,569.114685 
	C485.437622,562.152100 480.273285,556.265320 472.785919,555.292358 
	C470.814850,555.036194 468.804260,555.004395 466.811829,555.004028 
	C385.168671,554.990662 303.525543,554.992615 221.882385,554.993042 
	C220.549438,554.993042 219.210068,554.913635 217.884644,555.014771 
	C211.098083,555.532776 205.325409,562.195740 205.735092,568.985046 
	C206.292679,578.225342 211.579559,582.954346 221.546936,582.957825 
	C275.864624,582.976746 330.182312,582.966858 385.500000,582.966858 
M281.499969,638.917725 
	C302.646149,638.919556 323.792389,638.937683 344.938538,638.912659 
	C350.777710,638.905762 355.279449,636.208008 357.773956,631.059753 
	C360.060364,626.340881 359.944885,621.436096 356.703339,616.889038 
	C353.485809,612.375549 349.022400,610.901611 343.710205,610.917053 
	C324.562225,610.972717 305.413971,610.938477 286.265839,610.938599 
	C264.120605,610.938782 241.975250,610.898499 219.830170,610.959778 
	C210.998062,610.984192 205.142838,617.379761 205.883453,625.928955 
	C206.615784,634.382324 211.880371,638.856018 221.557053,638.894287 
	C241.204407,638.972046 260.852264,638.917664 281.499969,638.917725 
M596.942505,218.676910 
	C595.437866,210.842560 591.368774,206.523209 584.701904,205.683487 
	C578.719299,204.929962 572.869080,207.977020 570.367737,213.377197 
	C567.921448,218.658279 568.455383,223.757706 572.150085,228.292999 
	C576.014404,233.036591 581.231628,234.516235 586.920288,232.818710 
	C593.299072,230.915298 596.588806,226.183563 596.942505,218.676910 
M539.886902,225.040115 
	C542.130188,217.670471 540.352661,211.668045 534.809204,207.893372 
	C529.791626,204.476776 522.764038,204.766464 518.154297,208.734421 
	C513.751892,212.523743 511.975311,217.341995 513.541077,223.014557 
	C515.083679,228.603485 518.770935,232.200714 524.593323,233.136810 
	C531.253296,234.207581 536.214172,231.557434 539.886902,225.040115 
M793.866516,213.802841 
	C791.615112,219.610733 792.406799,224.934570 796.799194,229.403656 
	C800.774109,233.447983 805.825256,234.396973 811.052307,232.700470 
	C816.555786,230.914246 819.714355,226.789566 820.479431,220.987457 
	C821.293030,214.817261 817.493286,208.627563 811.581726,206.405930 
	C804.962524,203.918335 798.799622,206.267166 793.866516,213.802841 
M848.576050,219.495514 
	C849.881897,230.450287 859.029846,236.351746 868.256531,232.191635 
	C874.457336,229.395798 877.603210,222.925110 876.056763,216.147491 
	C874.617004,209.837494 868.788025,205.364197 862.211792,205.522507 
	C854.881714,205.698959 849.887207,210.549377 848.576050,219.495514 
M259.350342,799.346069 
	C254.530289,793.013733 248.391708,791.042175 241.987213,793.769409 
	C236.238464,796.217407 232.815781,802.040344 233.590942,808.154419 
	C234.329712,813.981323 237.531693,818.023315 243.038147,819.841980 
	C248.535828,821.657776 253.657425,820.421875 257.612854,816.137390 
	C262.023834,811.359497 262.393250,805.800476 259.350342,799.346069 
z"/>
<path fill="#020202" opacity="1.000000" stroke="none" 
	d="
M137.651230,951.367615 
	C127.528046,943.330750 122.150345,933.082397 121.886024,920.593689 
	C121.522873,903.435730 121.696526,886.265625 121.695908,869.100769 
	C121.688553,664.445923 121.751404,459.791046 121.507957,255.136490 
	C121.496269,245.312790 124.448586,238.268265 131.392166,231.442947 
	C166.330292,197.099808 200.927826,162.408783 235.470200,127.666168 
	C239.827469,123.283646 244.486435,121.433014 250.525757,121.436340 
	C379.018280,121.506981 507.511200,121.640312 636.003174,121.366928 
	C662.950195,121.309593 681.003052,141.088348 680.964172,166.664154 
	C680.762085,299.656158 680.862000,432.648621 680.896423,565.640930 
	C680.897949,571.577576 679.889099,576.895386 674.553223,580.502197 
	C665.711182,586.479004 653.916626,580.923828 653.009033,570.278320 
	C652.811340,567.960205 652.901978,565.615295 652.901855,563.282715 
	C652.898010,431.457001 652.903809,299.631317 652.863708,167.805634 
	C652.862854,165.003464 652.749329,162.081207 651.972534,159.424316 
	C650.339905,153.840225 646.474304,150.448685 640.560608,149.764832 
	C638.582031,149.536041 636.571045,149.520554 634.574829,149.520370 
	C512.081909,149.509720 389.588989,149.510818 267.096069,149.510818 
	C265.447937,149.510818 263.799774,149.510818 261.355377,149.510818 
	C261.355377,151.575470 261.355408,153.312485 261.355377,155.049500 
	C261.355072,184.714447 261.365051,214.379395 261.349609,244.044342 
	C261.343109,256.544708 256.357880,261.499847 243.790009,261.505890 
	C214.458374,261.519958 185.126740,261.510651 155.795105,261.510803 
	C153.977493,261.510834 152.159882,261.510834 149.647064,261.510834 
	C149.647064,263.522461 149.647079,265.284210 149.647064,267.045929 
	C149.645996,482.866760 149.644897,698.687561 149.644058,914.508423 
	C149.644058,915.508362 149.621597,916.509155 149.653488,917.508118 
	C149.954956,926.948669 155.174576,932.298767 164.638626,932.447571 
	C174.968826,932.609985 185.303513,932.488892 195.636246,932.488892 
	C341.794464,932.489197 487.952698,932.497498 634.110901,932.438538 
	C637.553040,932.437134 641.283569,932.389648 644.376892,931.129639 
	C650.828979,928.501404 652.946228,922.908691 652.930969,916.164246 
	C652.860168,884.832825 652.896667,853.501282 652.896912,822.169739 
	C652.896973,812.503662 652.830322,802.836792 652.930420,793.171692 
	C653.012573,785.237305 658.196838,779.431763 665.408936,778.923828 
	C673.401306,778.360840 679.474060,783.301819 680.659363,791.452454 
	C680.921326,793.253296 680.862183,795.108398 680.862610,796.938538 
	C680.872314,836.269592 680.878723,875.600708 680.866028,914.931763 
	C680.857056,942.827454 663.239014,960.500122 635.343628,960.502991 
	C479.185974,960.518982 323.028320,960.500488 166.870682,960.532471 
	C156.254852,960.534607 146.399277,958.383484 137.651230,951.367615 
M185.489014,216.989212 
	C180.075272,221.991180 174.661545,226.993164 169.247818,231.995132 
	C169.629288,232.395416 170.010773,232.795700 170.392242,233.195984 
	C191.258102,233.195984 212.123978,233.195984 233.115936,233.195984 
	C233.115936,212.080780 233.115936,191.261917 233.115936,168.688797 
	C216.723450,185.312531 201.354065,200.898697 185.489014,216.989212 
z"/>
<path fill="#050505" opacity="1.000000" stroke="none" 
	d="
M960.317688,768.000549 
	C960.317444,817.664307 960.252686,866.828125 960.350403,915.991699 
	C960.386536,934.168640 953.066711,948.059021 936.548401,955.924500 
	C930.739258,958.690552 923.793457,960.295288 917.356323,960.326965 
	C853.028381,960.643433 788.698242,960.504639 724.368774,960.546692 
	C718.188660,960.550720 713.186035,958.501953 710.346069,952.852966 
	C707.944763,948.076721 707.764221,942.824463 711.351318,938.752258 
	C713.697021,936.089417 717.340149,934.338623 720.708801,932.894897 
	C722.709534,932.037476 725.305603,932.488342 727.633972,932.487793 
	C790.130249,932.472900 852.626465,932.459351 915.122742,932.506226 
	C920.100525,932.510010 924.770203,931.992798 928.443481,928.185303 
	C931.974976,924.524719 932.366699,919.975037 932.363159,915.192078 
	C932.320618,858.195496 932.335754,801.198914 932.335754,744.202332 
	C932.335876,552.047119 932.326294,359.891968 932.377136,167.736801 
	C932.378906,161.100098 931.815125,154.704010 925.123047,151.516815 
	C921.991272,150.025299 918.096130,149.609055 914.545471,149.602890 
	C851.882751,149.494080 789.219543,149.587173 726.557251,149.383438 
	C722.315857,149.369659 717.557617,148.213684 713.969421,146.048294 
	C708.954834,143.022049 708.027649,137.429443 709.238708,131.834412 
	C710.353882,126.682564 715.158264,122.541496 720.464355,121.797646 
	C722.107483,121.567314 723.784119,121.489807 725.445435,121.489418 
	C788.941650,121.474762 852.438477,121.636986 915.933777,121.396423 
	C940.283386,121.304169 956.013428,137.211731 959.433350,155.605225 
	C960.218018,159.824921 960.283203,164.222000 960.284058,168.537521 
	C960.322815,368.191864 960.317688,567.846191 960.317688,768.000549 
z"/>
<path fill="#020202" opacity="1.000000" stroke="none" 
	d="
M736.792114,772.000183 
	C736.792419,764.856445 736.792419,758.212708 736.792419,750.839844 
	C734.626648,750.839844 732.711426,750.839844 730.796143,750.839844 
	C673.305786,750.839844 615.815308,750.868958 558.325134,750.762939 
	C555.096313,750.756958 551.622253,750.201965 548.694336,748.917664 
	C542.928101,746.388550 539.994873,739.925415 541.205200,734.019714 
	C542.474426,727.825989 547.803528,723.261292 554.233459,722.894409 
	C555.562927,722.818481 556.898438,722.831177 558.231140,722.831116 
	C621.220581,722.828430 684.211121,723.023499 747.198547,722.670654 
	C760.364502,722.596924 764.978516,730.722717 764.846069,740.352112 
	C764.546204,762.156250 764.751709,783.967346 764.751709,806.465637 
	C770.752136,806.465637 776.507141,806.642517 782.233215,806.314087 
	C783.357910,806.249573 784.719482,804.408203 785.384094,803.089966 
	C803.623413,766.914490 821.294800,730.439758 840.269409,694.655762 
	C845.784241,684.255371 845.090393,676.604675 839.891174,666.603210 
	C821.360291,630.955811 803.782104,594.812134 785.982483,558.787659 
	C784.500793,555.789001 782.827637,554.706665 779.532654,554.922546 
	C774.756104,555.235535 769.943848,555.002747 764.752563,555.002747 
	C764.752563,558.343567 764.752625,561.295959 764.752563,564.248413 
	C764.752197,583.578491 764.557129,602.911377 764.834473,622.237427 
	C764.970520,631.718750 759.290527,639.072754 747.878235,639.009338 
	C684.390808,638.656189 620.899597,638.677551 557.411926,639.006287 
	C547.317383,639.058533 540.891174,631.945679 540.985352,624.841309 
	C541.097168,616.407776 547.478943,611.002136 557.631104,611.000854 
	C615.288086,610.993469 672.945129,610.997314 730.602112,610.997314 
	C732.430725,610.997314 734.259338,610.997253 736.793701,610.997253 
	C736.793701,609.083923 736.793762,607.331604 736.793701,605.579285 
	C736.793091,584.749451 736.762939,563.919556 736.804138,543.089783 
	C736.825562,532.250854 742.178711,527.015198 753.113953,527.000916 
	C765.445251,526.984802 777.779602,527.164368 790.106689,526.936340 
	C797.842224,526.793213 802.821411,529.993286 806.278076,536.963196 
	C829.072388,582.925476 852.078430,628.782776 874.984253,674.689880 
	C877.327637,679.386414 876.555054,683.926758 874.239380,688.525024 
	C855.941772,724.857910 837.723816,761.230896 819.494995,797.598450 
	C814.659241,807.246033 809.862427,816.913086 805.064148,826.579346 
	C802.818970,831.102234 799.273499,834.087891 794.196594,834.153748 
	C779.045227,834.350464 763.882019,834.538452 748.739807,834.126465 
	C741.585083,833.931702 736.895081,827.881592 736.835205,819.990417 
	C736.715088,804.161072 736.794678,788.330322 736.792114,772.000183 
z"/>
<path fill="#020202" opacity="1.000000" stroke="none" 
	d="
M402.999939,415.119476 
	C342.850586,415.119476 283.201202,415.120728 223.551849,415.113342 
	C221.722122,415.113098 219.878876,415.147705 218.064987,414.952179 
	C210.150528,414.099243 205.184540,408.009125 205.586517,399.755219 
	C205.916809,392.973053 212.458099,387.123718 219.701279,387.124420 
	C302.843597,387.132568 385.985931,387.140411 469.128235,387.146240 
	C506.117523,387.148834 543.106812,387.164551 580.096069,387.125488 
	C585.089844,387.120239 589.738037,387.798218 593.260437,391.804535 
	C597.300598,396.399658 598.077087,401.628967 595.580017,407.071259 
	C593.074097,412.532867 588.583496,415.145538 582.448059,415.141418 
	C522.798706,415.101471 463.149323,415.118622 402.999939,415.119476 
z"/>
<path fill="#020202" opacity="1.000000" stroke="none" 
	d="
M310.000000,471.060852 
	C280.178894,471.060852 250.857788,471.082306 221.536743,471.048828 
	C211.757919,471.037659 206.684799,466.780182 205.871765,458.113159 
	C205.131134,450.217896 210.945160,443.412689 218.874557,443.058807 
	C222.198364,442.910492 225.535721,443.080780 228.866928,443.080841 
	C345.484924,443.083435 462.102905,443.082611 578.720886,443.086548 
	C580.385376,443.086609 582.061218,443.025146 583.712341,443.188568 
	C591.358276,443.945404 597.225769,450.019684 596.954163,456.813416 
	C596.605164,465.540619 591.050415,471.046265 582.386536,471.048065 
	C491.757690,471.066925 401.128845,471.060394 310.000000,471.060852 
z"/>
<path fill="#010101" opacity="1.000000" stroke="none" 
	d="
M224.104767,499.002441 
	C342.533051,499.014099 460.476959,499.023224 578.420898,499.037842 
	C580.251343,499.038055 582.094604,498.980072 583.909973,499.164673 
	C591.541077,499.940735 597.293762,506.054901 596.950195,512.924744 
	C596.530518,521.316650 590.845947,526.989624 582.616760,526.991028 
	C462.173889,527.011292 341.731049,527.011230 221.288177,526.995605 
	C213.056183,526.994568 207.001724,522.691162 205.921616,516.276062 
	C204.557541,508.174255 208.105438,501.909607 215.764313,499.641937 
	C218.230164,498.911865 220.993286,499.185730 224.104767,499.002441 
z"/>
<path fill="#030303" opacity="1.000000" stroke="none" 
	d="
M581.636353,331.226044 
	C590.571594,331.135162 595.422607,336.576660 596.895874,342.868286 
	C598.229553,348.563812 594.795776,355.243652 589.133362,357.713684 
	C586.377014,358.916046 583.020508,359.132385 579.935242,359.134521 
	C480.821320,359.203369 381.707336,359.191620 282.593353,359.191010 
	C270.932922,359.190918 259.272156,359.236542 247.612213,359.160278 
	C241.795029,359.122253 237.297668,356.582947 234.812546,351.221924 
	C232.395706,346.008270 232.488068,340.424652 236.752991,336.603851 
	C239.795410,333.878265 244.428696,331.421692 248.358170,331.412323 
	C359.298370,331.148987 470.239319,331.212616 581.636353,331.226044 
z"/>
<path fill="#000000" opacity="1.000000" stroke="none" 
	d="
M429.999695,876.491699 
	C360.205505,876.491516 290.911316,876.495605 221.617142,876.486023 
	C211.710541,876.484619 206.728683,872.242065 205.843460,863.155334 
	C205.172043,856.263245 209.978546,849.935303 216.791321,848.887512 
	C218.590378,848.610779 220.441528,848.591125 222.268784,848.590881 
	C327.542633,848.577881 432.816498,848.589417 538.090332,848.550781 
	C543.459473,848.548828 548.325806,849.277527 551.926941,853.862305 
	C555.490967,858.399780 555.963745,863.343933 553.633423,868.341064 
	C551.489990,872.937439 547.902954,876.052368 542.399963,876.114807 
	C532.250977,876.229919 522.102478,876.455139 511.953461,876.474243 
	C484.802277,876.525391 457.650970,876.491699 429.999695,876.491699 
z"/>
<path fill="#040404" opacity="1.000000" stroke="none" 
	d="
M299.506592,793.049072 
	C302.067169,792.878723 304.228668,792.698669 306.390167,792.698303 
	C397.518524,792.684387 488.646942,792.663391 579.775146,792.773804 
	C583.308838,792.778076 587.212646,793.334167 590.293335,794.907349 
	C596.024841,797.834412 598.110535,804.454407 596.256714,810.783020 
	C594.506470,816.757935 588.806885,820.667480 581.818970,820.667053 
	C512.848022,820.662781 443.877014,820.655457 374.906036,820.650208 
	C351.749115,820.648499 328.591858,820.585632 305.435425,820.689758 
	C298.404968,820.721313 293.078033,818.200134 290.259155,811.597412 
	C287.176788,804.377502 290.559296,797.524170 299.506592,793.049072 
z"/>
<path fill="#010101" opacity="1.000000" stroke="none" 
	d="
M385.000000,582.966858 
	C330.182312,582.966858 275.864624,582.976746 221.546936,582.957825 
	C211.579559,582.954346 206.292679,578.225342 205.735092,568.985046 
	C205.325409,562.195740 211.098083,555.532776 217.884644,555.014771 
	C219.210068,554.913635 220.549438,554.993042 221.882385,554.993042 
	C303.525543,554.992615 385.168671,554.990662 466.811829,555.004028 
	C468.804260,555.004395 470.814850,555.036194 472.785919,555.292358 
	C480.273285,556.265320 485.437622,562.152100 485.024567,569.114685 
	C484.542999,577.232239 478.898010,582.931763 470.974792,582.948059 
	C442.483307,583.006714 413.991608,582.968506 385.000000,582.966858 
z"/>
<path fill="#020202" opacity="1.000000" stroke="none" 
	d="
M280.999939,638.917725 
	C260.852264,638.917664 241.204407,638.972046 221.557053,638.894287 
	C211.880371,638.856018 206.615784,634.382324 205.883453,625.928955 
	C205.142838,617.379761 210.998062,610.984192 219.830170,610.959778 
	C241.975250,610.898499 264.120605,610.938782 286.265839,610.938599 
	C305.413971,610.938477 324.562225,610.972717 343.710205,610.917053 
	C349.022400,610.901611 353.485809,612.375549 356.703339,616.889038 
	C359.944885,621.436096 360.060364,626.340881 357.773956,631.059753 
	C355.279449,636.208008 350.777710,638.905762 344.938538,638.912659 
	C323.792389,638.937683 302.646149,638.919556 280.999939,638.917725 
z"/>
<path fill="#050505" opacity="1.000000" stroke="none" 
	d="
M596.951233,219.087799 
	C596.588806,226.183563 593.299072,230.915298 586.920288,232.818710 
	C581.231628,234.516235 576.014404,233.036591 572.150085,228.292999 
	C568.455383,223.757706 567.921448,218.658279 570.367737,213.377197 
	C572.869080,207.977020 578.719299,204.929962 584.701904,205.683487 
	C591.368774,206.523209 595.437866,210.842560 596.951233,219.087799 
z"/>
<path fill="#040404" opacity="1.000000" stroke="none" 
	d="
M539.708618,225.386993 
	C536.214172,231.557434 531.253296,234.207581 524.593323,233.136810 
	C518.770935,232.200714 515.083679,228.603485 513.541077,223.014557 
	C511.975311,217.341995 513.751892,212.523743 518.154297,208.734421 
	C522.764038,204.766464 529.791626,204.476776 534.809204,207.893372 
	C540.352661,211.668045 542.130188,217.670471 539.708618,225.386993 
z"/>
<path fill="#040404" opacity="1.000000" stroke="none" 
	d="
M794.000854,213.429001 
	C798.799622,206.267166 804.962524,203.918335 811.581726,206.405930 
	C817.493286,208.627563 821.293030,214.817261 820.479431,220.987457 
	C819.714355,226.789566 816.555786,230.914246 811.052307,232.700470 
	C805.825256,234.396973 800.774109,233.447983 796.799194,229.403656 
	C792.406799,224.934570 791.615112,219.610733 794.000854,213.429001 
z"/>
<path fill="#040404" opacity="1.000000" stroke="none" 
	d="
M848.595825,219.110992 
	C849.887207,210.549377 854.881714,205.698959 862.211792,205.522507 
	C868.788025,205.364197 874.617004,209.837494 876.056763,216.147491 
	C877.603210,222.925110 874.457336,229.395798 868.256531,232.191635 
	C859.029846,236.351746 849.881897,230.450287 848.595825,219.110992 
z"/>
<path fill="#040404" opacity="1.000000" stroke="none" 
	d="
M259.568115,799.652466 
	C262.393250,805.800476 262.023834,811.359497 257.612854,816.137390 
	C253.657425,820.421875 248.535828,821.657776 243.038147,819.841980 
	C237.531693,818.023315 234.329712,813.981323 233.590942,808.154419 
	C232.815781,802.040344 236.238464,796.217407 241.987213,793.769409 
	C248.391708,791.042175 254.530289,793.013733 259.568115,799.652466 
z"/>
<path fill="#FEFEFE" opacity="1.000000" stroke="none" 
	d="
M185.736847,216.737045 
	C201.354065,200.898697 216.723450,185.312531 233.115936,168.688797 
	C233.115936,191.261917 233.115936,212.080780 233.115936,233.195984 
	C212.123978,233.195984 191.258102,233.195984 170.392242,233.195984 
	C170.010773,232.795700 169.629288,232.395416 169.247818,231.995132 
	C174.661545,226.993164 180.075272,221.991180 185.736847,216.737045 
z"/>
</svg>