<svg version="1.1" id="Layer_1" xmlns="http://www.w3.org/2000/svg" xmlns:xlink="http://www.w3.org/1999/xlink" x="0px" y="0px"
	 width="100%" viewBox="0 0 1024 1024" enable-background="new 0 0 1024 1024" xml:space="preserve">
<path fill="#ffffff" opacity="1.000000" stroke="none" 
	d="
M310.903503,171.943878 
	C356.847809,181.065094 401.333771,193.643539 444.130493,211.727280 
	C466.861572,221.332291 488.945160,232.317535 509.715576,245.741730 
	C512.255127,247.383072 513.951904,247.153214 516.390076,245.610870 
	C557.989197,219.296280 603.173523,201.218872 650.306580,187.694580 
	C672.388916,181.358337 694.578918,175.369980 717.267517,171.611450 
	C748.106995,166.502655 778.946045,161.453827 810.228333,159.517624 
	C832.339966,158.149048 854.432312,156.756561 876.592163,156.794678 
	C887.171265,156.812881 891.916260,161.436981 892.050049,171.987930 
	C892.166260,181.152664 892.065674,190.319992 892.082520,199.486160 
	C892.096130,206.868851 892.128967,207.105576 899.680359,206.515228 
	C912.830872,205.487167 925.993286,205.769547 939.153687,205.702637 
	C950.548218,205.644714 955.164185,210.291672 955.166443,221.805328 
	C955.177429,276.802490 955.153015,331.799622 955.151917,386.796783 
	C955.149475,510.790344 955.153381,634.783875 955.154663,758.777466 
	C955.154846,771.484558 950.671875,776.010254 938.116272,776.007751 
	C890.758240,775.998169 843.532349,778.611267 796.556519,784.526123 
	C722.649231,793.832092 650.259521,809.620361 580.844849,837.355347 
	C560.411438,845.519653 540.356018,854.537048 521.571411,866.112610 
	C516.290466,869.366882 511.210602,870.066956 505.625702,866.822205 
	C462.089081,841.527222 415.150482,824.723877 366.829773,811.392212 
	C325.708099,800.046814 283.925568,792.011902 241.685043,786.201416 
	C205.194534,781.181885 168.540894,778.354858 131.740616,776.937744 
	C116.914978,776.366821 102.097847,776.166321 87.273064,776.018982 
	C75.225594,775.899292 70.863274,771.533264 70.863693,759.263123 
	C70.865349,710.932312 70.880531,662.601440 70.881439,614.270630 
	C70.883881,484.277374 70.879829,354.284119 70.894142,224.290863 
	C70.894417,221.797623 70.856285,219.268265 71.236908,216.818024 
	C72.356552,209.610291 76.922089,205.727936 84.283691,205.687943 
	C98.777664,205.609192 113.281586,205.479141 127.738922,206.688171 
	C132.515228,207.087601 134.204666,205.542572 134.025864,200.622025 
	C133.675034,190.968338 133.841599,181.292816 133.920685,171.627365 
	C134.001892,161.702515 138.838928,156.765381 148.677841,156.801254 
	C178.495178,156.909958 208.226105,158.507339 237.912918,161.448807 
	C262.270477,163.862244 286.324768,168.169724 310.903503,171.943878 
M276.416626,711.765198 
	C292.290375,714.606812 308.259247,717.003052 324.021027,720.368958 
	C384.433838,733.269897 442.583130,752.489014 496.461700,783.341919 
	C497.444153,783.904541 498.388336,784.715393 499.807495,784.203613 
	C501.270081,782.579651 500.676331,780.479675 500.685944,778.569519 
	C500.755646,764.738220 500.743561,750.906494 500.744324,737.074890 
	C500.752716,583.260681 500.751923,429.446503 500.804718,275.632294 
	C500.806030,271.793091 500.441376,268.833923 496.574615,266.445251 
	C464.370941,246.551422 430.073975,231.187927 394.215515,219.367172 
	C322.224976,195.635468 248.084442,184.356613 172.458435,182.181519 
	C168.056183,182.054916 162.412384,179.517731 159.540451,182.539398 
	C156.783066,185.440567 158.468735,191.150665 158.474792,195.600861 
	C158.656464,328.912445 157.825119,462.225128 158.871841,595.535706 
	C159.138672,629.519043 158.004807,663.500427 158.773697,697.488708 
	C158.871353,701.805359 160.165573,702.890564 164.154633,702.795166 
	C177.654907,702.472290 191.129425,703.417358 204.592026,704.235596 
	C228.343185,705.679138 251.994537,708.178528 276.416626,711.765198 
M867.118652,340.500000 
	C867.137268,330.334137 866.983154,320.164520 867.204651,310.003082 
	C868.108765,268.520294 867.270996,227.034164 867.591919,185.551132 
	C867.615479,182.502808 866.549927,181.624847 863.442383,181.691925 
	C836.456177,182.274612 809.570190,184.083435 782.742004,187.120026 
	C745.309998,191.356842 708.284424,197.757965 671.866333,207.402679 
	C621.878784,220.641037 573.853760,238.687027 529.738770,266.194733 
	C526.519226,268.202240 525.210693,270.372406 525.212769,274.193726 
	C525.304749,442.357025 525.298096,610.520386 525.352356,778.683716 
	C525.352966,780.526917 524.515686,782.700623 526.692444,784.394043 
	C527.976929,783.777710 529.346802,783.206360 530.635437,782.489075 
	C550.452576,771.457825 570.830139,761.663574 591.908997,753.212524 
	C647.115967,731.078552 704.510620,717.675598 763.286865,709.833496 
	C795.974670,705.472107 828.835876,702.874146 861.845764,702.808899 
	C865.831299,702.801025 867.201233,701.827393 867.196777,697.492798 
	C867.073425,578.828613 867.109314,460.164307 867.118652,340.500000 
M133.957397,557.500000 
	C133.961655,453.176910 133.965866,348.853821 133.970352,244.530716 
	C133.970474,241.697617 133.850601,238.857788 134.005478,236.033081 
	C134.209015,232.320816 132.482971,231.116455 128.926453,231.078857 
	C120.600830,230.990875 112.279930,230.526382 103.954216,230.356979 
	C95.471733,230.184387 95.424873,230.259125 95.425606,238.551956 
	C95.429420,282.026947 95.421753,325.501984 95.486679,368.976898 
	C95.584938,434.773468 95.845016,500.569977 95.839470,566.366516 
	C95.834435,626.020447 95.582497,685.674377 95.374641,745.328125 
	C95.361717,749.038879 95.468399,751.739258 100.480904,751.682800 
	C124.973488,751.406921 149.391266,753.144104 173.833359,754.497864 
	C196.648560,755.761536 219.281525,758.493958 241.911804,761.341614 
	C267.823792,764.602112 293.501495,769.280212 319.069702,774.610413 
	C385.249573,788.406982 449.249603,808.454407 509.053345,840.569580 
	C511.870911,842.082642 513.931213,842.163086 516.794128,840.587952 
	C551.082092,821.724182 587.285706,807.344482 624.581665,795.773376 
	C678.908081,778.918640 734.434937,767.619934 790.869690,760.489014 
	C834.380371,754.991150 878.029541,752.124390 921.859192,751.653076 
	C930.601257,751.559082 930.616028,751.583740 930.616211,742.740417 
	C930.619446,574.919434 930.618958,407.098389 930.618347,239.277374 
	C930.618347,238.110855 930.558533,236.942337 930.607483,235.778168 
	C930.773987,231.824295 929.151611,230.022659 924.960815,230.251968 
	C916.647095,230.706863 908.317200,230.886230 899.992126,231.109451 
	C892.077637,231.321686 892.073792,231.282425 892.073975,239.086624 
	C892.077637,395.908417 892.082153,552.730225 892.082886,709.552002 
	C892.082886,711.384583 892.148132,713.227234 891.988464,715.048035 
	C891.330688,722.545227 886.375916,727.157410 878.793335,727.194214 
	C833.113220,727.415833 787.704529,730.626404 742.575989,738.098511 
	C695.121826,745.955627 648.720398,757.446045 603.850464,774.975830 
	C575.820007,785.926819 548.932007,799.052063 523.761292,815.559875 
	C514.667603,821.523926 511.500702,821.819275 502.520599,815.926758 
	C467.441467,792.909058 429.347168,776.312256 389.612701,763.329590 
	C351.717255,750.947815 312.894592,742.474792 273.499725,736.486389 
	C253.100616,733.385559 232.627411,730.840515 212.056564,729.490662 
	C190.119904,728.051147 168.145065,726.914978 146.136154,727.192322 
	C141.702469,727.248169 138.502762,725.079529 136.143448,721.575134 
	C133.996048,718.385559 133.903992,714.699524 133.906494,710.988770 
	C133.940765,660.159180 133.944870,609.329590 133.957397,557.500000 
z"/>
<path fill="#ffffff" opacity="1.000000" stroke="none" 
	d="
M249.134232,555.127441 
	C236.839462,553.229370 224.893509,552.288940 212.953812,551.383850 
	C204.149643,550.716431 199.249130,545.996826 199.647797,537.933350 
	C199.994339,530.923889 205.687943,526.184021 214.011414,526.780823 
	C232.921082,528.136658 251.738220,530.412659 270.532898,532.923767 
	C306.903381,537.783142 342.635498,545.614380 377.889313,555.673523 
	C401.939636,562.535828 425.388947,571.148682 448.433502,580.844299 
	C455.344177,583.751953 458.259796,590.745239 455.724915,597.305359 
	C453.278961,603.635376 446.850006,606.414673 439.550415,603.594238 
	C420.138000,596.093811 400.843872,588.312988 380.899292,582.250977 
	C342.919586,570.707214 304.359100,561.928101 264.922516,557.151733 
	C259.804504,556.531799 254.695602,555.836914 249.134232,555.127441 
z"/>
<path fill="#ffffff" opacity="1.000000" stroke="none" 
	d="
M209.381317,459.202759 
	C201.751297,456.305115 198.294983,450.558167 199.907867,444.084412 
	C201.450256,437.893616 207.889267,434.365570 215.222992,434.965790 
	C239.925934,436.987518 264.488922,440.178772 288.972229,443.903534 
	C314.995544,447.862610 340.571259,453.984802 366.037964,460.644226 
	C393.662720,467.867950 420.394104,477.565338 446.752533,488.406708 
	C451.959259,490.548309 456.117096,493.551270 456.354401,499.880463 
	C456.698975,509.069458 449.183716,515.039734 440.480560,511.974121 
	C429.175842,507.992065 418.119659,503.306824 406.829193,499.281342 
	C367.221832,485.159729 326.675232,474.681915 285.090759,468.286102 
	C260.091461,464.441132 235.009583,461.311554 209.381317,459.202759 
z"/>
<path fill="#ffffff" opacity="1.000000" stroke="none" 
	d="
M296.484009,653.539917 
	C277.612274,650.861328 259.190582,648.100342 240.720291,645.715820 
	C231.661362,644.546326 222.519699,643.970642 213.401596,643.320923 
	C205.586807,642.763977 200.517258,638.976562 199.696655,632.698669 
	C198.646423,624.664124 203.896896,618.215027 211.987518,618.768494 
	C226.239258,619.743347 240.491333,621.025513 254.660416,622.829773 
	C281.877411,626.295593 308.974030,630.509705 335.752075,636.677185 
	C373.947968,645.474304 411.181213,657.203552 447.419037,672.135437 
	C452.493073,674.226257 455.740265,677.549744 456.286194,683.108948 
	C456.767700,688.012451 454.945770,691.977417 450.791626,694.640442 
	C446.216705,697.573059 441.599976,696.438721 436.968414,694.502930 
	C419.919281,687.377136 402.666321,680.800659 385.005310,675.322876 
	C356.068481,666.347717 326.777191,658.822937 296.484009,653.539917 
z"/>
<path fill="#ffffff" opacity="1.000000" stroke="none" 
	d="
M307.576538,396.505707 
	C306.144073,399.179413 304.938873,401.557495 303.632538,403.878632 
	C300.445923,409.540466 293.636780,412.230072 288.392151,409.947876 
	C282.190277,407.249207 279.274384,400.823395 281.322937,394.223694 
	C282.869446,389.241364 285.846161,384.955322 288.318420,380.443146 
	C309.758514,341.312134 331.317474,302.246216 352.757904,263.115387 
	C355.652649,257.832214 359.601074,254.476273 365.803101,254.828461 
	C370.989136,255.122925 375.083282,259.099854 376.633911,264.509186 
	C377.760834,268.440460 376.133759,271.687439 374.361237,274.919800 
	C360.111847,300.904266 345.849121,326.881439 331.583008,352.856689 
	C323.648651,367.303223 315.699982,381.741943 307.576538,396.505707 
z"/>
<path fill="#ffffff" opacity="1.000000" stroke="none" 
	d="
M272.775269,302.841034 
	C267.495331,306.079010 262.643280,309.342682 257.520203,312.103302 
	C253.836655,314.088226 254.625732,316.052277 256.363464,318.859955 
	C262.937073,329.480896 269.424561,340.157410 275.779785,350.910339 
	C279.116791,356.556458 278.757629,361.360535 275.165192,365.765930 
	C269.757782,372.397186 260.306610,371.775726 255.277405,364.191864 
	C251.230026,358.088654 247.589951,351.714813 243.785217,345.451294 
	C238.337494,336.483002 232.824249,327.553192 227.488449,318.518646 
	C222.518646,310.103821 223.932022,303.675293 232.183075,298.568268 
	C247.050415,289.366119 262.077789,280.422394 277.042633,271.377930 
	C282.061066,268.344879 287.065125,267.950897 291.941132,271.656982 
	C296.112457,274.827484 297.250000,279.138519 296.300873,284.102692 
	C295.594299,287.798370 293.180328,290.293030 290.119141,292.198730 
	C284.464325,295.719086 278.766846,299.170990 272.775269,302.841034 
z"/>
<path fill="#ffffff" opacity="1.000000" stroke="none" 
	d="
M415.437378,372.483154 
	C403.474152,379.770264 391.828491,386.878632 380.178650,393.980225 
	C373.376526,398.126709 365.905243,396.703949 362.308014,390.588440 
	C358.641968,384.355927 360.801666,377.164764 367.519226,373.104248 
	C378.484680,366.475983 389.436035,359.824371 400.391846,353.180115 
	C401.376465,352.583008 402.494110,352.134613 403.221313,350.358063 
	C398.588501,342.591278 393.767639,334.477142 388.912903,326.383270 
	C386.344940,322.101837 383.587982,317.928619 381.149292,313.576019 
	C377.736694,307.485291 379.559662,300.274017 385.132233,296.980774 
	C390.944763,293.545776 398.187134,294.927307 401.825745,300.803406 
	C411.811493,316.929779 421.620605,333.168396 431.280701,349.492157 
	C434.617737,355.131104 432.803680,361.419861 427.203949,365.195557 
	C423.482025,367.705109 419.576538,369.942413 415.437378,372.483154 
z"/>
<path fill="#ffffff" opacity="1.000000" stroke="none" 
	d="
M637.738831,558.673828 
	C675.517273,547.489746 713.382751,538.675720 752.098938,533.501892 
	C770.891418,530.990540 789.692566,528.698730 808.564270,526.947632 
	C811.534851,526.671997 814.540283,526.293884 817.490295,527.230042 
	C823.933044,529.274719 827.159973,534.316589 826.309875,541.027710 
	C825.602661,546.611267 820.883911,550.797241 814.468018,551.280212 
	C780.079773,553.868835 745.935120,558.389526 712.139832,565.175903 
	C670.431824,573.551331 629.742615,585.466431 590.516846,602.108093 
	C589.137146,602.693481 587.771179,603.329773 586.351624,603.799805 
	C579.162231,606.180176 573.203491,603.762939 570.572266,597.448853 
	C567.813538,590.828613 570.496338,583.956909 577.387878,580.907898 
	C596.906494,572.272522 617.018494,565.218140 637.738831,558.673828 
z"/>
<path fill="#ffffff" opacity="1.000000" stroke="none" 
	d="
M576.269043,306.114807 
	C605.162903,293.432678 634.588928,283.508759 664.748291,275.550720 
	C698.255981,266.709229 732.225098,260.426453 766.539307,255.953781 
	C782.020569,253.935883 797.600952,252.649200 813.154541,251.229828 
	C819.614807,250.640274 825.575195,255.625122 826.307617,261.702454 
	C827.143555,268.638336 823.282410,274.376801 816.204468,275.313202 
	C803.854004,276.947083 791.416565,277.909821 779.035095,279.324554 
	C719.795166,286.093475 661.912170,298.603699 606.241028,320.395081 
	C599.887817,322.881958 593.617188,325.584381 587.233521,327.988190 
	C580.179199,330.644562 573.921021,328.478668 570.999268,322.621490 
	C567.877014,316.362335 569.575928,310.753662 576.269043,306.114807 
z"/>
<path fill="#ffffff" opacity="1.000000" stroke="none" 
	d="
M726.646301,378.799133 
	C681.480713,386.672211 638.053711,399.041321 595.983215,416.154785 
	C592.439453,417.596375 588.926086,419.155975 585.287781,420.312408 
	C578.959473,422.323853 573.361328,419.822968 570.773193,414.121307 
	C568.007568,408.028809 569.834045,401.122223 575.762695,398.184082 
	C582.607910,394.791779 589.763794,391.994110 596.888855,389.204041 
	C642.169556,371.472870 689.096741,359.835205 736.986145,351.971436 
	C761.907166,347.879242 787.000366,344.966156 812.179993,342.907959 
	C819.471375,342.311920 825.757751,347.362213 826.307068,354.052246 
	C826.903809,361.318665 822.445068,366.650635 814.584167,367.349884 
	C785.257690,369.958740 756.060547,373.515381 726.646301,378.799133 
z"/>
<path fill="#ffffff" opacity="1.000000" stroke="none" 
	d="
M785.651855,437.561279 
	C795.037415,436.619354 803.956970,435.517487 812.909912,434.902527 
	C820.050964,434.411957 825.892517,439.624603 826.311584,446.229553 
	C826.777466,453.571960 822.236694,458.657654 814.404968,459.357086 
	C777.263916,462.674103 740.310608,467.347839 703.819153,475.148346 
	C664.664734,483.518066 626.531189,495.244995 589.520813,510.571472 
	C586.465149,511.836853 583.396301,513.319092 579.935303,512.827759 
	C574.880005,512.110107 570.674316,508.010712 569.789917,503.073456 
	C568.842346,497.783539 570.823547,492.772522 575.501892,490.281342 
	C580.046143,487.861481 584.818115,485.826813 589.606445,483.914368 
	C636.962646,465.000336 686.023438,452.248505 736.274658,444.058777 
	C752.498596,441.414673 768.788635,438.974213 785.651855,437.561279 
z"/>
<path fill="#ffffff" opacity="1.000000" stroke="none" 
	d="
M653.448853,671.495483 
	C631.455627,677.863586 610.302612,685.384888 589.643066,694.286133 
	C589.184326,694.483765 588.721252,694.672058 588.254822,694.850830 
	C580.028198,698.004761 573.394531,695.857178 570.505859,689.106812 
	C567.559082,682.220703 570.766846,675.304688 578.852722,672.020996 
	C601.066101,663.000244 623.433105,654.355103 646.555664,647.914978 
	C677.341675,639.340332 708.380615,631.843445 740.036377,627.146179 
	C763.220398,623.705933 786.457520,620.721558 809.823425,618.809998 
	C810.487000,618.755737 811.154114,618.741638 811.819946,618.718933 
	C820.496460,618.422791 825.937073,622.478333 826.362305,629.556824 
	C826.846069,637.612183 821.720764,642.803711 812.699341,643.280151 
	C802.564636,643.815369 792.496948,644.994507 782.417114,646.126526 
	C738.860168,651.018005 695.858337,658.694641 653.448853,671.495483 
z"/>
</svg>