<svg version="1.1" id="Layer_1" xmlns="http://www.w3.org/2000/svg" xmlns:xlink="http://www.w3.org/1999/xlink" x="0px" y="0px"
	 width="100%" viewBox="0 0 1024 1024" enable-background="new 0 0 1024 1024" xml:space="preserve">
<path fill="#000000" opacity="1.000000" stroke="none" 
	d="
M785.458130,884.617004 
	C770.561218,873.337646 755.876709,862.377014 741.395691,851.153870 
	C737.893494,848.439697 735.070068,847.992126 731.069763,850.174988 
	C719.933899,856.251404 708.036865,860.641846 696.019165,864.619873 
	C692.321411,865.843811 690.723083,867.959167 690.214966,871.690735 
	C687.612061,890.805359 684.811829,909.892944 682.166016,929.001892 
	C680.926086,937.956726 675.117859,943.305359 665.976685,943.320801 
	C635.313904,943.372620 604.650940,943.358215 573.988037,943.330139 
	C563.421631,943.320496 557.427551,937.907471 556.027893,927.221924 
	C553.566833,908.433411 551.067932,889.649292 548.744690,870.843567 
	C548.387939,867.955688 547.268066,866.319092 544.533264,865.426453 
	C531.217285,861.080017 518.193176,855.993347 505.854462,849.317505 
	C502.692474,847.606750 500.535095,848.989624 498.193817,850.761536 
	C483.185028,862.120789 468.151062,873.446716 453.134125,884.795166 
	C444.694336,891.173157 436.835510,891.041382 429.431946,883.685364 
	C407.570465,861.964233 385.831787,840.118652 364.161133,818.206909 
	C357.698853,811.672791 357.718140,803.997009 363.956360,795.633667 
	C371.026398,786.155029 378.296448,776.825867 385.450745,767.409790 
	C389.886017,761.572327 394.284424,755.706665 398.663971,749.827271 
	C400.070435,747.939148 401.294281,746.135193 399.850647,743.488342 
	C394.415802,733.524048 390.150146,723.041199 386.473328,712.310791 
	C386.108063,711.244812 385.428772,710.286438 384.946869,709.375732 
	C382.867249,709.132874 382.108582,710.660706 381.112854,711.652771 
	C359.276123,733.410767 337.507751,755.237488 315.643799,776.967957 
	C294.712494,797.771423 269.368134,808.427063 239.928009,807.095337 
	C191.794052,804.917969 153.510757,769.273804 146.575455,724.546814 
	C141.199112,689.873840 151.608551,660.547607 176.240738,635.951416 
	C208.432098,603.807068 240.603653,571.642822 272.845428,539.549255 
	C275.094116,537.310913 275.583313,535.283325 275.045380,532.054932 
	C272.971527,519.608765 271.348694,507.084686 269.732758,494.567047 
	C269.332397,491.465729 268.397583,489.284851 265.190857,488.194275 
	C257.457489,485.564301 249.887512,482.494568 242.710480,478.563690 
	C240.606140,477.411102 239.188019,477.904419 237.372803,479.300476 
	C226.942886,487.321930 216.390884,495.184479 205.888672,503.112091 
	C198.280243,508.855347 191.236603,508.919525 184.329086,502.297241 
	C173.507492,491.922516 163.108398,481.107300 152.523575,470.485413 
	C147.465912,465.410095 142.323608,460.417114 137.343063,455.267456 
	C130.293137,447.978241 129.809509,440.541595 135.904968,432.397003 
	C143.191574,422.660797 150.519684,412.951996 158.034424,403.392181 
	C160.512970,400.239105 160.857117,397.620911 159.016541,393.906586 
	C156.142197,388.106110 153.886078,381.977753 151.679398,375.875671 
	C150.245667,371.911072 148.281235,369.691986 143.623672,369.138123 
	C130.764877,367.608856 117.956879,365.576904 105.187325,363.400238 
	C97.255203,362.048157 92.805397,356.834320 92.753128,348.847260 
	C92.601540,325.684509 92.604347,302.519531 92.753395,279.356720 
	C92.804359,271.436310 97.934402,266.130890 106.556732,264.818542 
	C118.901527,262.939667 131.272308,261.201477 143.668915,259.710022 
	C147.824692,259.210022 150.358887,257.698914 151.564545,253.520859 
	C153.505371,246.795059 156.144974,240.300659 159.343002,234.060013 
	C160.789917,231.236526 160.567764,228.878540 158.560059,226.265488 
	C151.049286,216.490204 143.660828,206.618469 136.364044,196.681915 
	C129.588135,187.454681 130.186768,180.374496 138.320969,172.285172 
	C153.319214,157.369705 168.351181,142.487946 183.409821,127.633430 
	C190.978104,120.167747 197.952866,119.626213 206.582306,126.031616 
	C216.212753,133.180023 225.763229,140.442261 235.183182,147.864777 
	C238.426270,150.420181 241.126465,151.090714 245.085281,149.070953 
	C251.295883,145.902344 257.835907,143.310913 264.404663,140.941360 
	C267.765076,139.729141 269.152222,137.623627 269.605957,134.428085 
	C271.309967,122.428108 273.102112,110.439857 274.696716,98.425377 
	C276.124786,87.665573 281.484314,82.719315 292.191254,82.707314 
	C313.688599,82.683220 335.185974,82.675499 356.683319,82.683174 
	C367.653961,82.687088 372.922089,87.356804 374.339203,98.097664 
	C375.971191,110.467255 377.757935,122.816818 379.321106,135.194839 
	C379.681000,138.044647 380.864899,139.699524 383.600250,140.594940 
	C390.890808,142.981506 397.947357,145.989807 404.794495,149.427399 
	C407.714355,150.893295 409.903442,150.691849 412.513306,148.675735 
	C421.873199,141.445206 431.425629,134.464615 440.856079,127.324577 
	C451.511841,119.256905 457.689331,119.661758 466.995605,129.034348 
	C477.093140,139.203857 487.350922,149.216782 497.316681,159.512985 
	C500.090698,162.378967 501.869019,162.322662 504.620117,159.605438 
	C530.066345,134.472778 560.191345,117.367638 594.663940,108.052368 
	C636.978210,96.618111 678.680603,99.023537 719.624207,114.514793 
	C729.446716,118.231194 732.049133,130.110489 724.919739,138.533707 
	C721.593201,142.464066 717.715820,145.930359 714.064087,149.582916 
	C684.022827,179.631073 654.009644,209.707626 623.871765,239.658585 
	C621.203796,242.310043 620.794556,244.467239 622.197327,247.923126 
	C629.586182,266.126617 636.760437,284.418030 643.887695,302.726135 
	C644.938721,305.425903 646.485474,307.109802 649.192322,308.187317 
	C667.758911,315.578461 686.313660,323.002350 704.783875,330.629944 
	C708.446655,332.142487 710.274048,330.314240 712.476074,328.122314 
	C745.541809,295.208099 778.644348,262.330750 811.732239,229.438705 
	C817.769043,223.437683 823.699890,221.957581 830.214783,224.827988 
	C834.282532,226.620239 836.781006,229.736588 838.319336,233.840042 
	C848.332886,260.551422 852.759949,288.169952 851.090393,316.624573 
	C849.573975,342.468811 843.104431,367.187286 832.308716,390.712341 
	C830.520203,394.609589 830.729004,397.131531 833.946106,400.262421 
	C847.199768,413.160950 860.172363,426.348755 873.217712,439.460632 
	C881.015564,447.298218 881.531006,454.095551 874.864624,462.931580 
	C863.326904,478.224335 851.773254,493.506622 840.034180,508.644257 
	C837.969299,511.307007 837.752686,513.343018 839.272400,516.259094 
	C845.595337,528.391296 850.903442,540.969971 854.936768,554.053894 
	C855.837036,556.974060 857.399231,558.340393 860.521545,558.754089 
	C880.133972,561.352051 899.723328,564.125427 919.316406,566.868286 
	C927.976013,568.080505 933.223083,573.621460 933.258484,582.377991 
	C933.385864,613.873596 933.372925,645.370178 933.262268,676.865845 
	C933.233276,685.104675 928.814453,690.330750 920.519531,691.613281 
	C902.614746,694.381714 884.651428,696.771057 866.712585,699.319031 
	C864.412170,699.645752 862.124329,700.142212 859.813354,700.290955 
	C857.243958,700.456421 855.952393,701.788635 855.244080,704.123291 
	C851.169800,717.551392 845.852905,730.481995 839.238953,742.851257 
	C837.546326,746.016724 838.830688,748.189697 840.597778,750.542542 
	C852.004333,765.730286 863.405151,780.922424 874.779419,796.134399 
	C881.535828,805.170471 880.998413,811.820862 872.894226,819.927490 
	C851.804932,841.023132 830.705200,862.108337 809.608582,883.196655 
	C801.737427,891.064880 794.709900,891.547241 785.458130,884.617004 
M498.504852,214.954468 
	C471.857971,260.577179 465.989410,308.580505 482.154236,359.038391 
	C484.379669,365.984985 483.144165,371.751831 477.941589,376.811676 
	C473.521820,381.110138 469.221558,385.531219 464.847321,389.876770 
	C429.502869,424.989563 394.055267,459.999268 358.848358,495.249451 
	C342.138184,511.980194 325.452484,528.739197 308.858826,545.589417 
	C272.027771,582.989990 234.683456,619.885925 197.460495,656.899231 
	C179.671478,674.588013 171.883560,695.660034 176.251984,720.492432 
	C180.981049,747.375061 197.119659,765.541687 222.619934,773.854614 
	C248.489655,782.287964 272.657898,777.073853 292.386139,757.749695 
	C324.645691,726.150696 356.368927,694.004150 388.310760,662.080933 
	C450.779144,599.648926 513.260071,537.229492 575.674866,474.744019 
	C580.842224,469.570862 586.478333,468.229279 593.404175,470.400269 
	C614.356262,476.967987 635.717957,480.141541 657.789307,478.936920 
	C683.187317,477.550781 707.093872,470.940948 729.290833,458.879272 
	C770.859741,436.290924 798.914917,402.215393 813.265869,357.065002 
	C820.461243,334.427246 822.836609,311.193146 820.513977,287.565430 
	C819.841492,280.724030 819.122986,273.794678 816.836487,266.710083 
	C815.626465,267.763367 814.733643,268.453522 813.940430,269.243744 
	C784.427917,298.648865 754.778137,327.918884 725.533569,357.588226 
	C719.058777,364.157013 712.677734,365.482117 704.449890,362.174591 
	C680.192139,352.423157 655.896118,342.763763 631.528015,333.292236 
	C624.925720,330.726044 620.998657,326.178619 618.503479,319.779358 
	C609.065552,295.574738 599.601013,271.379211 589.910645,247.275055 
	C586.590698,239.017014 588.599365,232.433899 594.617615,226.446823 
	C618.244629,202.942154 641.792786,179.358139 665.453857,155.887955 
	C672.035278,149.359665 678.904968,143.121994 686.229980,136.195358 
	C633.884583,121.847656 546.916382,136.258636 498.504852,214.954468 
M772.662231,619.722107 
	C772.035522,612.272888 771.307617,604.840698 769.639099,597.529907 
	C760.829956,558.930115 740.769470,527.750061 708.581848,504.459534 
	C705.157959,501.982056 702.051086,501.514832 697.970032,502.548279 
	C664.219849,511.094482 630.406982,511.010681 596.663513,502.488800 
	C593.031738,501.571625 590.631897,501.985077 587.876587,504.752258 
	C551.551147,541.234253 515.055847,577.546997 478.684143,613.983093 
	C463.903046,628.790344 465.123901,622.792847 467.204468,644.997009 
	C471.224152,687.895447 490.819458,722.744873 524.143188,749.514221 
	C556.380737,775.410950 593.584473,785.972961 634.831177,781.906921 
	C668.469543,778.590942 697.958862,765.550537 722.582825,742.586487 
	C757.792786,709.750122 774.946350,669.108826 772.662231,619.722107 
M223.987823,334.620270 
	C235.191971,387.793854 284.189514,423.083527 338.090546,415.785980 
	C399.424530,407.482117 440.330719,346.814270 422.993469,287.139832 
	C411.283508,246.834412 383.833923,221.097092 342.049072,213.870331 
	C300.876343,206.749466 266.744476,220.902298 241.559341,254.291534 
	C223.803665,277.831177 218.779877,304.864899 223.987823,334.620270 
z"/>
<path fill="#000000" opacity="1.000000" stroke="none" 
	d="
M257.570984,707.052246 
	C243.837143,701.924927 241.231018,690.105408 251.282822,679.958923 
	C259.598389,671.565063 267.983154,663.238831 276.400452,654.946716 
	C283.186035,648.262146 292.007233,647.875732 298.195435,653.870483 
	C304.460388,659.939575 304.577515,668.854797 297.963806,675.714844 
	C288.955078,685.059265 279.667908,694.137817 270.398438,703.226746 
	C266.995117,706.563660 262.719269,707.736206 257.570984,707.052246 
z"/>
</svg>