<svg version="1.1" id="Layer_1" xmlns="http://www.w3.org/2000/svg" xmlns:xlink="http://www.w3.org/1999/xlink" x="0px" y="0px"
	 width="100%" viewBox="0 0 1024 1024" enable-background="new 0 0 1024 1024" xml:space="preserve">
<path fill="#000000" opacity="1.000000" stroke="none" 
	d="
M918.400208,755.000122 
	C918.403687,798.166016 917.840881,840.842773 918.655212,883.493164 
	C919.047180,904.023376 902.668701,918.678345 883.703857,918.613525 
	C758.040894,918.183960 632.374878,918.183899 506.712036,918.642517 
	C487.197937,918.713806 470.753510,904.762817 471.080017,882.949402 
	C471.419189,860.291138 471.194427,837.628174 471.444458,814.964905 
	C471.727539,789.309875 471.928925,763.643311 471.220520,737.980713 
	C470.881531,725.699341 471.162201,713.400818 471.162201,701.413574 
	C469.106079,699.837463 467.203766,700.335510 465.427429,700.334595 
	C406.428467,700.303040 347.429352,700.354309 288.430756,700.202332 
	C283.653625,700.190063 281.753815,701.487854 282.252075,706.365601 
	C282.605927,709.829285 282.335999,713.358582 282.313538,716.858398 
	C282.225098,730.641296 271.743958,741.175354 257.913544,741.235901 
	C242.080780,741.305237 226.247131,741.317444 210.414551,741.231323 
	C196.197311,741.153931 185.957672,730.860840 185.712357,716.555542 
	C185.646637,712.723328 185.499191,708.876953 185.741333,705.059448 
	C185.983154,701.246521 184.358109,700.205322 180.757126,700.250305 
	C168.092651,700.408508 155.424957,700.326721 142.758545,700.307068 
	C122.033371,700.274841 107.663177,685.858398 107.648331,665.031799 
	C107.622429,628.699097 107.611496,592.366394 107.644142,556.033691 
	C107.663391,534.606689 121.565529,520.759460 143.002930,520.712158 
	C153.835983,520.688232 164.671371,520.558838 175.500961,520.748413 
	C179.405594,520.816772 180.901901,519.521179 180.727158,515.571777 
	C180.484299,510.082550 180.467773,504.565338 180.728104,499.077850 
	C180.917633,495.083069 179.296906,493.874207 175.484650,493.857727 
	C162.991318,493.803741 150.488022,494.392853 138.004166,493.424316 
	C121.152969,492.116913 107.743980,478.127106 107.690674,461.279083 
	C107.569923,423.113525 107.574654,384.947113 107.686005,346.781464 
	C107.734718,330.084381 120.619820,316.015747 137.319946,314.577911 
	C150.110107,313.476807 162.969452,313.873260 175.785324,314.369232 
	C179.677246,314.519867 180.827866,313.339722 180.712845,309.675323 
	C180.529922,303.847839 180.450256,298.000000 180.734665,292.180695 
	C180.936676,288.047363 179.132599,287.086792 175.405701,287.142456 
	C164.408325,287.306702 153.406754,287.247650 142.407196,287.197571 
	C122.090813,287.105103 107.679626,272.794037 107.654434,252.608902 
	C107.608459,215.776260 107.599792,178.943481 107.643593,142.110855 
	C107.667892,121.680191 121.743469,107.638863 142.263504,107.636353 
	C313.760498,107.615379 485.257507,107.617867 656.754517,107.645676 
	C678.135437,107.649147 692.037170,121.735039 692.032654,143.123444 
	C692.024963,179.456116 692.045349,215.788803 692.030212,252.121475 
	C692.021667,272.701202 677.721985,287.094055 657.218201,287.170502 
	C646.218567,287.211517 635.217285,287.283691 624.219604,287.134338 
	C620.400696,287.082458 618.776001,288.359589 618.932495,292.334045 
	C619.155212,297.991150 619.136414,303.672241 618.888855,309.328583 
	C618.702820,313.580444 620.545898,314.723053 624.536377,314.654327 
	C636.032715,314.456299 647.535034,314.529846 659.034424,314.592163 
	C675.489746,314.681305 688.693787,325.441742 691.333191,341.615997 
	C692.206177,346.965790 694.338806,348.217590 699.419067,348.179718 
	C729.250244,347.957367 759.084412,348.160278 788.916321,347.995972 
	C794.490601,347.965240 798.592163,349.720520 802.563477,353.720337 
	C839.434326,390.855713 876.449463,427.848267 913.545227,464.759216 
	C917.394348,468.589264 919.038818,472.667267 918.976990,478.057129 
	C917.919373,570.202515 918.600159,662.352234 918.400208,755.000122 
M804.694092,476.079834 
	C793.148315,469.663177 787.562622,459.848145 787.597717,446.642731 
	C787.665344,421.146790 787.612244,395.650513 787.598145,370.154358 
	C787.593750,362.215912 787.577332,362.206146 779.682251,362.205750 
	C688.862671,362.200958 598.043030,362.198486 507.223419,362.197906 
	C492.093170,362.197815 485.252472,368.987518 485.252838,384.100189 
	C485.256775,550.408386 485.268768,716.716614 485.290405,883.024841 
	C485.292297,897.489441 492.292419,904.675415 506.662109,904.680115 
	C632.476440,904.721252 758.290771,904.727722 884.105103,904.698303 
	C897.432129,904.695190 904.755005,897.206970 904.756714,883.783325 
	C904.773621,751.303345 904.767639,618.823364 904.761658,486.343353 
	C904.761353,479.542297 904.734009,479.457703 897.878601,479.444946 
	C871.882568,479.396576 845.886230,479.348145 819.890564,479.447937 
	C814.772766,479.467560 809.973145,478.619049 804.694092,476.079834 
M124.255013,130.900467 
	C121.871529,135.086441 121.246155,139.631042 121.250534,144.380600 
	C121.283279,179.877853 121.444939,215.376740 121.141624,250.871490 
	C121.044472,262.240570 127.737068,273.401550 143.456116,273.150116 
	C165.606445,272.795837 187.779556,273.434296 209.932083,273.437195 
	C358.748352,273.456696 507.565460,274.099945 656.382141,273.190125 
	C672.036011,273.094421 678.774109,261.518097 678.705017,250.672699 
	C678.482910,215.843430 678.633362,181.011871 678.615417,146.181198 
	C678.606445,128.773071 671.034363,121.234123 653.636658,121.240257 
	C566.643311,121.270927 479.649963,121.313293 392.656616,121.333214 
	C309.996246,121.352142 227.335846,121.371063 144.675507,121.319023 
	C136.552719,121.313911 129.508194,123.235260 124.255013,130.900467 
M473.243317,370.103088 
	C478.217163,356.963684 487.615662,349.572540 501.700745,348.595612 
	C522.666809,347.141510 543.659668,348.546539 564.644714,348.262451 
	C600.302979,347.779724 635.972473,348.130829 671.637207,348.102051 
	C678.081116,348.096863 679.442139,346.086243 676.727478,340.166931 
	C672.645386,331.265778 665.418457,327.840424 655.776672,327.846985 
	C485.119232,327.963135 314.461761,327.974670 143.804260,328.019531 
	C129.297974,328.023346 121.455757,335.687653 121.422585,350.181732 
	C121.340958,385.846222 121.330925,421.511169 121.416344,457.175629 
	C121.452789,472.395599 129.055984,479.866882 144.225555,479.875977 
	C250.553146,479.939789 356.880737,479.983612 463.208344,480.023651 
	C471.480438,480.026764 471.618652,479.898682 471.578766,471.672821 
	C471.449554,445.012604 471.152527,418.352234 471.220764,391.692657 
	C471.238525,384.750549 470.816315,377.677582 473.243317,370.103088 
M247.500061,534.335205 
	C213.017349,534.339111 178.534622,534.319031 144.051956,534.358154 
	C129.384430,534.374756 121.361717,542.289246 121.336205,556.882935 
	C121.273285,592.864868 121.276535,628.847046 121.316383,664.829041 
	C121.331047,678.068298 129.167480,685.936829 142.429520,686.077393 
	C164.412262,686.310425 186.396103,686.618225 208.379196,686.596313 
	C245.022247,686.559814 281.665344,686.105835 318.307953,686.159546 
	C367.278961,686.231384 416.252350,685.591736 465.220612,686.516113 
	C469.694122,686.600586 471.635468,684.536926 471.519073,680.239014 
	C471.406372,676.079285 471.129486,671.920105 471.141602,667.761353 
	C471.260712,626.786804 471.427826,585.812500 471.574707,544.838074 
	C471.612457,534.311035 471.601715,534.310791 461.394318,534.311951 
	C390.429565,534.319885 319.464813,534.327942 247.500061,534.335205 
M422.500000,287.253723 
	C404.672424,287.255554 386.844818,287.254181 369.017242,287.259857 
	C319.532898,287.275543 270.048584,287.289093 220.564240,287.318909 
	C215.208801,287.322144 209.883102,287.549408 205.210342,290.706848 
	C201.256378,293.378632 200.987106,297.527435 204.557877,300.689514 
	C206.300049,302.232269 208.210083,303.642212 209.696075,305.405548 
	C212.618210,308.873108 216.145874,310.125519 220.675217,310.082489 
	C237.667801,309.921082 254.663254,310.096039 271.657440,310.062439 
	C299.480865,310.007416 327.319092,310.407806 355.122070,309.607758 
	C372.836212,309.098022 390.364990,310.395172 407.946716,311.723419 
	C411.442078,311.987457 414.922180,311.637970 418.415405,311.491577 
	C432.004059,310.922028 445.482666,307.247772 459.189728,309.953186 
	C466.116577,311.320404 473.128632,311.146271 480.112030,310.885193 
	C493.251190,310.393982 506.368774,309.350250 519.515625,310.990692 
	C528.129639,312.065582 536.770691,311.737946 545.443787,311.169861 
	C556.532104,310.443512 567.633301,309.194519 578.755127,311.780518 
	C583.881226,312.972473 589.282227,313.328949 594.620422,312.005066 
	C600.317688,310.592072 605.132141,304.111816 604.641052,298.175293 
	C604.119934,291.875977 599.018066,287.236298 592.445984,287.235504 
	C536.130676,287.228760 479.815338,287.245087 422.500000,287.253723 
M287.707672,519.064148 
	C296.382111,518.445374 304.995270,519.839905 313.649384,519.858154 
	C350.785889,519.936218 387.922546,519.960083 425.058807,520.092285 
	C437.375580,520.136169 449.691040,520.548584 462.007782,520.587524 
	C467.714691,520.605591 470.535736,517.812866 471.008850,512.112427 
	C471.338776,508.136963 471.463470,504.139587 471.538940,500.149292 
	C471.612610,496.254181 470.018280,493.792114 465.696930,493.776611 
	C463.038788,493.767090 460.380280,493.400726 457.723999,493.424347 
	C444.572571,493.541229 431.422089,493.848389 418.270782,493.879822 
	C379.135223,493.973358 339.999390,493.963135 300.863678,494.005035 
	C269.055908,494.039124 237.247971,494.154205 205.440598,494.061829 
	C200.831436,494.048401 197.603363,495.754578 195.871246,499.770203 
	C192.069244,508.584625 198.721375,519.607605 208.354752,519.764160 
	C234.489380,520.189026 260.634033,520.476501 287.707672,519.064148 
M206.129227,720.458435 
	C208.689163,722.593262 211.876358,723.104797 214.975006,723.592651 
	C228.478333,725.718445 241.856903,724.538757 255.131012,721.681274 
	C256.737244,721.335510 258.339874,720.709900 259.782410,719.918884 
	C263.324036,717.977173 265.924164,711.782288 264.750885,707.740051 
	C263.482483,703.369995 260.246948,701.320496 255.780701,701.173218 
	C240.623550,700.673096 225.462967,700.730957 210.307495,701.152222 
	C205.222702,701.293518 202.421219,704.305359 202.058289,709.354797 
	C201.770035,713.365540 202.816040,716.939941 206.129227,720.458435 
M803.064453,410.244965 
	C803.278625,411.888580 803.211060,413.635162 803.766296,415.154144 
	C804.883545,418.210938 805.694641,422.786926 809.508057,422.430542 
	C815.748962,421.847321 822.731018,423.769104 828.060730,418.681000 
	C828.683655,418.086334 828.841003,416.867462 828.963013,415.906097 
	C829.987915,407.832092 822.064209,394.526062 814.440857,391.591797 
	C810.681030,390.144592 807.688843,390.891235 805.674622,394.768250 
	C803.272888,399.391266 802.962646,404.310150 803.064453,410.244965 
z"/>
<path fill="#000000" opacity="1.000000" stroke="none" 
	d="
M571.333740,806.504028 
	C569.743958,803.877380 569.943604,801.349182 569.943726,798.855713 
	C569.945190,776.193298 569.830139,753.529663 570.055176,730.869446 
	C570.100952,726.260803 568.482849,723.654114 564.615173,721.304749 
	C551.091309,713.089111 537.774414,704.532104 524.400452,696.070679 
	C516.623108,691.150085 516.746643,685.953735 524.646179,681.001038 
	C538.478760,672.328491 552.240112,663.540771 566.145874,654.987549 
	C568.923828,653.278931 569.984741,651.332764 569.962769,648.138855 
	C569.858398,632.975830 569.915405,617.811584 569.966492,602.647888 
	C569.996521,593.753418 571.952515,591.864624 580.919556,591.834717 
	C585.751953,591.818604 590.619690,591.435608 595.408813,591.885315 
	C603.293274,592.625610 609.841370,590.181213 616.369263,585.837402 
	C630.512024,576.426331 645.013977,567.549805 659.475464,558.627014 
	C662.647766,556.669678 664.229614,554.447998 664.095581,550.605896 
	C663.863342,543.949158 663.904724,537.272461 664.127380,530.614136 
	C664.255310,526.788818 662.704102,525.115295 659.074646,523.938171 
	C641.610718,518.274048 630.653198,506.576080 627.253052,488.282318 
	C622.673950,463.644867 639.359741,440.732178 665.235657,436.056030 
	C687.946472,431.951813 711.129578,449.517029 715.547546,473.033478 
	C719.105408,491.971863 708.253479,516.864929 684.095093,523.822388 
	C679.265320,525.213318 677.859253,527.478638 678.129456,532.193970 
	C678.500671,538.671814 678.335938,545.188416 678.193787,551.683960 
	C678.131592,554.526672 679.213928,556.246033 681.609131,557.741882 
	C698.706055,568.419861 715.750183,579.183167 732.748718,590.017090 
	C735.162537,591.555481 737.649048,591.834412 740.352600,591.832153 
	C766.014465,591.810486 791.676392,591.814209 817.338257,591.835815 
	C826.294373,591.843384 828.248230,593.798706 828.250427,602.637268 
	C828.254822,620.133972 828.370972,637.632263 828.153931,655.126282 
	C828.098755,659.573242 829.577759,660.877502 833.919922,660.746765 
	C843.409485,660.460999 852.913879,660.628662 862.411865,660.676819 
	C869.034729,660.710388 871.225708,662.804321 871.254883,669.246094 
	C871.313721,682.243408 871.319397,695.241333 871.261536,708.238647 
	C871.234741,714.262573 868.511047,717.169678 862.398499,717.188293 
	C834.903992,717.271790 807.408752,717.257141 779.914307,717.153259 
	C774.252686,717.131836 771.721863,714.423462 771.687683,708.747864 
	C771.607361,695.417480 771.609314,682.086060 771.680176,668.755615 
	C771.710938,662.966064 774.055054,660.723083 779.987305,660.681824 
	C789.651733,660.614624 799.319214,660.539062 808.980652,660.719299 
	C812.629395,660.787415 814.021179,659.574402 813.989685,655.850891 
	C813.860107,640.521606 813.872498,625.189941 813.998108,609.860474 
	C814.024963,606.583801 812.803528,605.333435 809.626892,605.489136 
	C786.640991,606.616272 763.656921,604.924438 740.668762,605.384399 
	C737.714478,605.443542 735.160767,606.206848 732.686890,607.773926 
	C716.081238,618.293579 699.487427,628.833740 682.769470,639.172729 
	C679.382080,641.267517 678.135132,643.695496 678.147949,647.665894 
	C678.277771,687.824646 678.296082,727.984375 678.133850,768.142883 
	C678.115051,772.803650 679.671448,774.273682 684.159912,774.162964 
	C693.152405,773.941284 702.156250,774.020813 711.152588,774.160583 
	C719.120422,774.284424 721.259766,776.527893 721.274536,784.352051 
	C721.298157,796.849670 721.317322,809.347534 721.266846,821.845032 
	C721.239685,828.570801 718.615051,831.195129 711.833618,831.203796 
	C684.838623,831.238342 657.843628,831.237671 630.848694,831.195068 
	C623.899353,831.184082 621.716309,828.870239 621.629333,821.828613 
	C621.475647,809.381531 621.475647,809.382935 608.772339,809.380249 
	C598.607544,809.378113 588.442749,809.347595 578.278076,809.384644 
	C575.683716,809.394043 573.279541,809.109619 571.333740,806.504028 
M590.545105,656.869751 
	C603.642822,665.138367 616.757202,673.380615 629.831543,681.686035 
	C636.919495,686.188599 636.894592,691.298401 629.788757,695.787415 
	C615.848572,704.593933 601.895874,713.380798 587.910706,722.115601 
	C585.680725,723.508484 584.024353,724.894348 584.037537,727.917053 
	C584.130066,749.074768 584.118896,770.233215 584.049438,791.391113 
	C584.038879,794.600830 585.296570,795.861755 588.497070,795.804565 
	C595.658752,795.676392 602.823975,795.741516 609.987793,795.748901 
	C621.530212,795.760925 621.530212,795.768066 621.633118,784.193359 
	C621.704529,776.167114 623.458191,774.289978 631.693848,774.146729 
	C640.354492,773.996033 649.025330,773.913025 657.680542,774.172546 
	C662.328674,774.311951 664.148743,772.891968 664.131287,767.968079 
	C663.988464,727.651306 664.034302,687.333618 664.132263,647.016479 
	C664.140869,643.472290 663.035461,641.190857 659.944336,639.290039 
	C646.041260,630.741089 631.907532,622.493103 618.578430,613.111450 
	C609.723389,606.878784 600.631042,604.554932 590.090149,605.259094 
	C585.621094,605.557556 583.884583,606.671326 583.982910,611.299927 
	C584.230591,622.956909 584.348389,634.630920 583.970093,646.280273 
	C583.806152,651.328369 585.321411,654.605591 590.545105,656.869751 
M654.081421,619.365662 
	C658.448486,622.120117 662.905151,624.744690 667.151428,627.674194 
	C670.029846,629.659973 672.445312,629.543579 675.356445,627.673584 
	C688.670471,619.121460 702.096863,610.744385 715.450073,602.252869 
	C716.799561,601.394775 718.467651,600.725342 718.963257,598.592285 
	C718.383057,597.982666 717.826660,597.116760 717.038879,596.612183 
	C702.591980,587.360229 688.100281,578.178223 673.667786,568.903931 
	C671.589539,567.568420 670.010803,568.156677 668.189758,569.317017 
	C654.424683,578.087646 640.618652,586.794006 626.849121,595.557739 
	C625.501343,596.415527 623.822083,597.089172 623.596130,599.602478 
	C632.977173,606.674133 643.533630,612.361389 654.081421,619.365662 
M698.899597,466.695740 
	C698.145630,465.402008 697.464539,464.058899 696.626343,462.822235 
	C689.164001,451.811951 674.829651,446.764923 662.221619,450.732086 
	C651.508667,454.103027 639.795471,465.076080 640.841675,479.945099 
	C641.308594,486.581573 642.913208,491.984863 647.178406,497.625580 
	C651.086853,502.794464 655.924988,506.313629 661.005066,508.618530 
	C672.254333,513.722412 683.367432,511.761108 692.328735,502.889191 
	C702.057678,493.257324 704.518799,479.106476 698.899597,466.695740 
M549.769958,695.699158 
	C557.555420,700.497192 565.462830,705.112549 573.062622,710.188599 
	C575.859070,712.056396 577.934204,712.245483 580.686951,710.487366 
	C589.798218,704.668030 599.044556,699.060242 608.154114,693.238281 
	C613.180115,690.026123 613.217468,687.626526 608.258057,684.413269 
	C599.040405,678.441162 589.672668,672.700684 580.448975,666.737793 
	C578.039490,665.180115 576.028259,665.084045 573.592712,666.655090 
	C565.622681,671.796082 557.565552,676.802368 549.525757,681.834656 
	C540.098145,687.735474 540.044861,689.352783 549.769958,695.699158 
M831.220459,702.174255 
	C836.364990,702.719055 841.534790,703.061646 846.673706,702.414978 
	C853.572021,701.546936 856.586670,698.104492 856.781494,691.145996 
	C856.898010,686.985229 856.802002,682.818787 856.876831,678.656311 
	C856.927185,675.856567 855.881958,674.204041 852.853149,674.205566 
	C831.536133,674.216492 810.219116,674.206665 788.902100,674.217590 
	C787.128967,674.218506 785.370605,674.558411 785.346008,676.789978 
	C785.267944,683.862732 785.317200,690.936829 785.317200,697.866760 
	C788.105957,698.486389 789.586609,697.175293 791.170410,696.406250 
	C798.410950,692.890503 805.401245,692.464844 812.435303,697.144897 
	C817.779724,700.700806 823.628662,703.023499 831.220459,702.174255 
M642.229187,794.581299 
	C640.038147,796.245667 637.828430,798.199707 638.588867,801.154480 
	C639.395996,804.290344 642.556091,805.059143 645.281982,805.670898 
	C650.466125,806.834290 655.563782,805.434082 660.618469,804.478699 
	C666.962952,803.279602 673.102844,803.126160 679.242798,805.695251 
	C683.631775,807.531738 688.398987,807.510315 693.047180,806.779419 
	C696.409363,806.250671 699.903870,805.102844 700.457336,801.161011 
	C701.009521,797.229126 698.078674,795.253113 694.889832,793.789062 
	C692.910217,792.880188 690.892517,792.171021 688.668030,792.102905 
	C677.718384,791.767395 666.771973,791.256592 655.820190,791.100098 
	C651.332886,791.036011 646.824646,791.664795 642.229187,794.581299 
z"/>
<path fill="#000000" opacity="1.000000" stroke="none" 
	d="
M177.698853,197.019211 
	C178.381287,182.217529 190.382156,170.666656 204.053375,171.200592 
	C217.831192,171.738678 229.222107,183.562805 229.239838,197.344925 
	C229.257782,211.296021 217.489655,223.122803 203.454346,223.258926 
	C189.436050,223.394913 178.266312,212.211258 177.698853,197.019211 
M194.490967,190.008621 
	C192.849167,191.786743 191.961273,193.992844 191.591507,196.281418 
	C190.977539,200.081528 192.682495,203.047455 195.633453,205.352905 
	C198.546280,207.628586 200.766556,205.638412 203.327911,204.348724 
	C208.476578,201.756241 207.885178,197.177231 207.990723,192.689880 
	C208.136688,186.483765 206.132690,184.833817 199.998367,186.347610 
	C198.009262,186.838486 196.322617,187.875458 194.490967,190.008621 
z"/>
<path fill="#000000" opacity="1.000000" stroke="none" 
	d="
M339.175232,188.539627 
	C345.003510,174.424728 359.102417,168.010147 372.367157,173.125427 
	C385.465302,178.176498 392.336914,192.911163 387.622467,205.837158 
	C382.764954,219.155396 368.466125,226.248184 355.336273,221.852386 
	C341.528015,217.229462 334.693024,203.422119 339.175232,188.539627 
M371.561493,188.991516 
	C366.480438,184.768997 362.183960,184.124573 357.512329,186.884293 
	C353.210815,189.425385 350.661011,194.557861 351.619965,199.102127 
	C352.656464,204.013687 355.230164,207.723557 360.466644,208.708038 
	C365.586945,209.670700 370.043793,208.468781 373.124207,203.888687 
	C375.886719,199.781235 375.495544,194.546982 371.561493,188.991516 
z"/>
<path fill="#000000" opacity="1.000000" stroke="none" 
	d="
M300.217377,216.255310 
	C282.248230,231.408600 260.171936,219.277267 257.455353,201.770721 
	C255.651306,190.144913 260.925568,179.265717 271.495483,174.060013 
	C281.781128,168.994324 293.644897,171.282745 301.584778,179.863968 
	C309.154266,188.044876 310.524963,200.915146 304.725983,210.483948 
	C303.529419,212.458359 301.912903,214.178268 300.217377,216.255310 
M291.070312,205.605942 
	C294.294708,201.775955 295.653381,197.580582 293.483551,192.753616 
	C291.568726,188.493851 288.316559,185.889236 283.638733,185.371033 
	C278.209473,184.769577 273.770233,187.646866 271.573975,192.980667 
	C269.580017,197.823120 271.109833,203.441147 275.317719,206.728989 
	C279.417206,209.932159 285.338379,209.688629 291.070312,205.605942 
z"/>
<path fill="#000000" opacity="1.000000" stroke="none" 
	d="
M443.792053,220.999847 
	C443.789764,200.015396 443.784576,179.530914 443.791626,159.046417 
	C443.792206,157.382950 443.666748,155.681046 443.963623,154.063782 
	C444.659698,150.271652 447.198730,148.152145 450.941162,148.187302 
	C454.597198,148.221649 456.614166,150.650467 457.224091,154.160980 
	C457.421448,155.296783 457.334137,156.486435 457.334290,157.651459 
	C457.337982,184.131409 457.335968,210.611359 457.333527,237.091309 
	C457.333466,237.923904 457.360504,238.759521 457.301788,239.588562 
	C457.013336,243.660278 454.911255,246.113205 450.770111,246.386505 
	C446.908936,246.641296 444.016449,243.860489 443.868134,239.483994 
	C443.665192,233.495285 443.801422,227.495071 443.792053,220.999847 
z"/>
<path fill="#000000" opacity="1.000000" stroke="none" 
	d="
M515.341675,211.000092 
	C515.342163,220.315811 515.388672,229.131836 515.325806,237.947083 
	C515.286926,243.401321 512.653809,246.460922 508.332733,246.332016 
	C504.205139,246.208908 501.886108,243.339462 501.879211,237.970032 
	C501.844269,210.857635 501.843994,183.745148 501.884125,156.632767 
	C501.892090,151.247604 504.637634,148.041718 508.863159,148.134415 
	C512.769653,148.220108 515.303162,151.406769 515.317261,156.607956 
	C515.366089,174.571899 515.339417,192.536026 515.341675,211.000092 
z"/>
<path fill="#000000" opacity="1.000000" stroke="none" 
	d="
M573.311279,189.000061 
	C573.309509,204.807709 573.309143,220.115326 573.302734,235.422958 
	C573.302124,236.920074 573.396301,238.433014 573.218933,239.911285 
	C572.732910,243.961502 570.424866,246.320465 566.295898,246.279663 
	C562.351440,246.240692 560.253296,243.851379 559.821899,240.039368 
	C559.635742,238.394135 559.720825,236.715652 559.720581,235.052292 
	C559.716797,209.761429 559.719421,184.470581 559.720642,159.179718 
	C559.720642,158.514175 559.715088,157.848480 559.725769,157.183090 
	C559.821472,151.203308 562.255493,148.048203 566.661987,148.186798 
	C570.741150,148.315094 573.282837,151.631454 573.302490,157.052933 
	C573.340576,167.535172 573.312012,178.017670 573.311279,189.000061 
z"/>
<path fill="#000000" opacity="1.000000" stroke="none" 
	d="
M631.345642,219.000000 
	C631.349854,225.823059 631.435486,232.147507 631.330688,238.468796 
	C631.249512,243.365692 628.784424,246.185928 624.794739,246.318726 
	C620.604065,246.458221 617.783691,243.537262 617.770142,238.451309 
	C617.696960,210.995926 617.702454,183.540222 617.754761,156.084763 
	C617.763977,151.270737 620.803955,148.067474 624.856201,148.148148 
	C628.663757,148.223938 631.287354,151.268814 631.302368,156.100983 
	C631.367188,176.900497 631.339233,197.700317 631.345642,219.000000 
z"/>
<path fill="#000000" opacity="1.000000" stroke="none" 
	d="
M178.608429,410.893188 
	C175.048569,395.594452 183.538147,381.814941 198.152832,378.602081 
	C212.118393,375.531891 226.025116,384.934296 228.949875,399.424072 
	C231.698914,413.043335 222.103271,426.531952 207.601074,429.434143 
	C195.181183,431.919617 183.923080,424.853577 178.608429,410.893188 
z"/>
<path fill="#000000" opacity="1.000000" stroke="none" 
	d="
M385.817444,391.421387 
	C394.663025,407.591492 384.938507,428.039246 364.708679,429.895844 
	C355.116699,430.776154 347.235687,426.244202 341.869293,418.141815 
	C335.977356,409.245880 335.853912,399.868256 341.181549,390.765808 
	C351.340271,373.409454 374.410980,373.670593 385.817444,391.421387 
M373.858154,398.948059 
	C369.677368,392.228180 362.679840,390.121460 357.004639,393.874084 
	C351.392944,397.584717 349.865540,404.881500 353.520905,410.516754 
	C356.511200,415.126740 362.384064,416.973206 367.568787,414.933563 
	C373.500214,412.600189 375.777924,407.337982 373.858154,398.948059 
z"/>
<path fill="#000000" opacity="1.000000" stroke="none" 
	d="
M256.819763,404.959717 
	C258.096985,389.906952 265.274567,381.083344 277.922913,378.545868 
	C288.503387,376.423248 299.433411,381.462585 305.015350,391.037048 
	C310.205963,399.940277 309.330444,412.248444 302.662262,420.063110 
	C295.462982,428.500153 286.333191,432.125977 275.506927,428.820068 
	C264.170929,425.358490 258.138977,417.134827 256.819763,404.959717 
M275.865936,394.195221 
	C269.991547,399.523895 269.026825,405.839325 273.254578,411.289795 
	C277.032227,416.160004 284.176819,417.205322 289.343170,413.643738 
	C294.227478,410.276520 295.771881,403.347748 292.789368,398.182709 
	C289.308167,392.154144 283.355133,390.541290 275.865936,394.195221 
z"/>
<path fill="#000000" opacity="1.000000" stroke="none" 
	d="
M457.334625,393.000061 
	C457.331970,410.332672 457.348419,427.165314 457.315796,443.997833 
	C457.304199,449.998688 454.892670,453.078247 450.409027,453.034698 
	C446.305054,452.994843 443.804047,449.766602 443.795288,444.189941 
	C443.752869,417.191223 443.737915,390.192352 443.763275,363.193634 
	C443.768463,357.678436 446.301758,354.774658 450.775543,354.808868 
	C455.080170,354.841766 457.291656,357.519867 457.320465,363.001373 
	C457.372131,372.834015 457.334625,382.667145 457.334625,393.000061 
z"/>
<path fill="#000000" opacity="1.000000" stroke="none" 
	d="
M193.112244,634.216858 
	C182.939865,628.869324 177.411514,620.909363 177.761002,609.618408 
	C178.068176,599.695496 182.777893,592.199280 191.638397,587.576355 
	C202.015366,582.162109 214.388092,584.328247 222.256165,592.763184 
	C230.083252,601.154175 231.466400,614.015259 225.585205,623.717773 
	C219.513779,633.734131 208.095779,638.400024 196.778549,635.464783 
	C195.656784,635.173828 194.573135,634.735962 193.112244,634.216858 
M207.720352,603.829712 
	C207.944550,599.942688 205.578186,598.994751 202.312531,599.053406 
	C196.540131,599.157166 191.424377,604.238403 191.411606,610.007202 
	C191.400330,615.094421 195.218445,617.946716 198.824478,619.880981 
	C202.226532,621.705872 204.196747,617.842285 206.309586,615.561096 
	C209.459244,612.160461 206.906067,608.165955 207.720352,603.829712 
z"/>
<path fill="#000000" opacity="1.000000" stroke="none" 
	d="
M388.078583,603.347534 
	C390.838745,616.915710 385.519958,628.596252 374.485291,633.845337 
	C363.875244,638.892456 351.130463,636.213318 343.723877,627.158508 
	C336.596283,618.444702 335.617310,608.783081 340.347107,598.693115 
	C344.701843,589.403320 354.858032,583.742004 365.859131,584.792419 
	C377.093292,585.865112 384.248505,592.450317 388.078583,603.347534 
M355.210266,601.660950 
	C350.691559,607.321167 350.143799,611.970032 353.580627,617.132812 
	C356.315308,621.240845 360.238678,623.185791 365.134308,622.229797 
	C369.877625,621.303528 373.481720,618.541992 374.564026,613.685730 
	C375.682617,608.666687 374.658356,604.023376 370.100769,600.847229 
	C365.273987,597.483521 360.469635,597.798523 355.210266,601.660950 
z"/>
<path fill="#000000" opacity="1.000000" stroke="none" 
	d="
M306.756592,619.406738 
	C301.351257,631.864502 289.767517,638.307129 277.709564,635.847046 
	C265.658234,633.388184 256.594177,622.746033 256.916107,610.567505 
	C257.184509,600.414429 261.455902,592.164917 270.905792,587.452576 
	C280.428345,582.703979 289.806702,583.558411 298.197601,589.919556 
	C306.459625,596.182922 309.352631,604.966797 307.914276,615.173584 
	C307.729828,616.482422 307.252014,617.749878 306.756592,619.406738 
M290.020050,619.571777 
	C294.912628,614.391418 295.778229,610.025879 292.942261,604.834229 
	C290.420959,600.218689 285.323120,597.707031 280.421204,598.729919 
	C275.097382,599.841003 272.086395,603.471008 270.874023,608.445190 
	C269.748657,613.062439 271.695007,616.998230 275.256897,619.867493 
	C279.817566,623.541260 284.670227,623.516418 290.020050,619.571777 
z"/>
<path fill="#000000" opacity="1.000000" stroke="none" 
	d="
M457.332153,572.158875 
	C457.330139,598.079712 457.330780,623.520874 457.320343,648.962036 
	C457.319672,650.623108 457.462921,652.330322 457.139221,653.935425 
	C456.523834,656.987183 454.669159,658.961792 451.402313,659.265442 
	C447.982452,659.583374 445.515656,658.144897 444.412933,654.916992 
	C443.891602,653.390869 443.827972,651.654541 443.825134,650.013062 
	C443.779053,623.408020 443.773682,596.802856 443.771759,570.197754 
	C443.771667,569.037903 443.701843,567.827515 443.992981,566.727661 
	C444.904327,563.284607 447.225342,561.182556 450.797699,561.275085 
	C454.144409,561.361633 456.339233,563.468750 457.087341,566.714844 
	C457.453613,568.304016 457.268036,570.020386 457.332153,572.158875 
z"/>
</svg>